G04 #@! TF.FileFunction,Copper,L2,Bot,Signal*
%FSLAX46Y46*%
G04 Gerber Fmt 4.6, Leading zero omitted, Abs format (unit mm)*
G04 Created by KiCad (PCBNEW 4.0.5-e0-6337~49~ubuntu16.04.1) date Mon Jan 30 13:11:42 2017*
%MOMM*%
%LPD*%
G01*
G04 APERTURE LIST*
%ADD10C,0.100000*%
%ADD11O,1.524000X2.524000*%
%ADD12R,1.300000X1.300000*%
%ADD13C,1.300000*%
%ADD14C,4.800000*%
%ADD15R,4.800000X4.800000*%
%ADD16C,1.699260*%
%ADD17R,1.699260X1.699260*%
%ADD18R,2.000000X2.000000*%
%ADD19C,2.000000*%
%ADD20C,1.998980*%
%ADD21R,1.824000X1.524000*%
%ADD22O,1.824000X1.524000*%
%ADD23R,1.524000X1.824000*%
%ADD24O,1.524000X1.824000*%
%ADD25R,1.600000X2.400000*%
%ADD26O,1.600000X2.400000*%
%ADD27C,1.422400*%
%ADD28R,1.600000X1.600000*%
%ADD29O,1.600000X1.600000*%
%ADD30O,1.699260X3.500120*%
%ADD31C,0.685800*%
%ADD32C,0.300000*%
%ADD33C,0.254000*%
G04 APERTURE END LIST*
D10*
D11*
X176420000Y-133620000D03*
X178960000Y-133620000D03*
X181500000Y-133620000D03*
X184040000Y-133620000D03*
X186580000Y-133620000D03*
X186580000Y-118380000D03*
X184040000Y-118380000D03*
X181500000Y-118380000D03*
X178960000Y-118380000D03*
X176420000Y-118380000D03*
D12*
X136500000Y-117500000D03*
D13*
X138500000Y-117500000D03*
D12*
X143500000Y-117500000D03*
D13*
X145500000Y-117500000D03*
D14*
X140400000Y-96000000D03*
D15*
X146500000Y-96000000D03*
D14*
X142690000Y-101080000D03*
D16*
X146160520Y-124497460D03*
D17*
X136000520Y-124497460D03*
D18*
X157460000Y-100500000D03*
D19*
X160000000Y-100500000D03*
D18*
X147500000Y-140000000D03*
D19*
X150040000Y-140000000D03*
D18*
X153460000Y-140000000D03*
D19*
X156000000Y-140000000D03*
D18*
X159460000Y-140000000D03*
D19*
X162000000Y-140000000D03*
D18*
X165500000Y-140000000D03*
D19*
X168040000Y-140000000D03*
D18*
X171460000Y-140000000D03*
D19*
X174000000Y-140000000D03*
D18*
X177500000Y-140000000D03*
D19*
X180040000Y-140000000D03*
D18*
X183500000Y-140000000D03*
D19*
X186040000Y-140000000D03*
D18*
X189500000Y-140000000D03*
D19*
X192040000Y-140000000D03*
D20*
X153000000Y-111000000D03*
X153000000Y-100840000D03*
D21*
X155000000Y-95500000D03*
D22*
X162620000Y-95500000D03*
D19*
X137500000Y-133500000D03*
X142000000Y-133500000D03*
X137500000Y-140000000D03*
X142000000Y-140000000D03*
D23*
X156500000Y-126000000D03*
D24*
X156500000Y-118380000D03*
X159040000Y-126000000D03*
X159040000Y-118380000D03*
X161580000Y-126000000D03*
X161580000Y-118380000D03*
X164120000Y-126000000D03*
X164120000Y-118380000D03*
X166660000Y-126000000D03*
X166660000Y-118380000D03*
D25*
X166300000Y-109620000D03*
D26*
X186620000Y-102000000D03*
X168840000Y-109620000D03*
X184080000Y-102000000D03*
X171380000Y-109620000D03*
X181540000Y-102000000D03*
X173920000Y-109620000D03*
X179000000Y-102000000D03*
X176460000Y-109620000D03*
X176460000Y-102000000D03*
X179000000Y-109620000D03*
X173920000Y-102000000D03*
X181540000Y-109620000D03*
X171380000Y-102000000D03*
X184080000Y-109620000D03*
X168840000Y-102000000D03*
X186620000Y-109620000D03*
X166300000Y-102000000D03*
D27*
X173500000Y-97000000D03*
X178580000Y-97000000D03*
D28*
X168580000Y-133000000D03*
D29*
X166040000Y-133000000D03*
X163500000Y-133000000D03*
X160960000Y-133000000D03*
X158420000Y-133000000D03*
X155880000Y-133000000D03*
D30*
X141000000Y-108000000D03*
X138460000Y-108000000D03*
X143540000Y-108000000D03*
D31*
X177028139Y-124971861D03*
X176500000Y-115000000D03*
X179028139Y-127971861D03*
X174000000Y-118838308D03*
X185750000Y-98000000D03*
X185258010Y-100723900D03*
X183750000Y-129000000D03*
X194937801Y-128085198D03*
X187000000Y-105750000D03*
X173028139Y-118971861D03*
X172046900Y-116750000D03*
X171500000Y-120000000D03*
X177407017Y-115864843D03*
X142000000Y-114000000D03*
X164500000Y-115500000D03*
X170000000Y-113000000D03*
X175000000Y-113000000D03*
X183500000Y-112000000D03*
X176000000Y-113500000D03*
X182500000Y-114000000D03*
X190000000Y-106000000D03*
X191500000Y-117500000D03*
X172250000Y-134750000D03*
X175218037Y-114021308D03*
X194190901Y-137404001D03*
X192500000Y-137746900D03*
X173500000Y-107500036D03*
X184000000Y-113000000D03*
X192000000Y-136000000D03*
X191000000Y-138300910D03*
X169274992Y-112320489D03*
X169448260Y-116551740D03*
X169500000Y-121500000D03*
X167500000Y-123500000D03*
X156000000Y-135000000D03*
X168500000Y-113000000D03*
X162000000Y-109000000D03*
X156000000Y-122500000D03*
X149000000Y-120000000D03*
X149000000Y-107000000D03*
X161500000Y-108000000D03*
X157500000Y-121000000D03*
D32*
X175253990Y-123470502D02*
X176755349Y-124971861D01*
X176755349Y-124971861D02*
X177028139Y-124971861D01*
X176500000Y-115000000D02*
X175253990Y-116246010D01*
X175253990Y-116246010D02*
X175253990Y-123470502D01*
X176500000Y-125500000D02*
X178971861Y-127971861D01*
X178971861Y-127971861D02*
X179028139Y-127971861D01*
X174000000Y-123000000D02*
X176500000Y-125500000D01*
X174000000Y-118838308D02*
X174000000Y-123000000D01*
D33*
X185600909Y-98149091D02*
X185750000Y-98000000D01*
X185258010Y-100723900D02*
X185600909Y-100381001D01*
X185600909Y-100381001D02*
X185600909Y-98149091D01*
X184000000Y-128750000D02*
X183750000Y-129000000D01*
X184000000Y-122396000D02*
X184000000Y-128750000D01*
X181500000Y-118380000D02*
X181500000Y-119896000D01*
X181500000Y-119896000D02*
X184000000Y-122396000D01*
X194914802Y-113664802D02*
X194937801Y-128085198D01*
X194914802Y-128085198D02*
X194937801Y-128085198D01*
X188000000Y-106750000D02*
X194914802Y-113664802D01*
X187750000Y-106000000D02*
X188000000Y-106250000D01*
X188000000Y-106250000D02*
X188000000Y-106750000D01*
X187500000Y-105750000D02*
X187750000Y-106000000D01*
X187000000Y-105750000D02*
X187500000Y-105750000D01*
D32*
X137500000Y-133500000D02*
X139000000Y-133500000D01*
X141000000Y-108000000D02*
X141000000Y-107099570D01*
X141000000Y-107099570D02*
X146500000Y-101599570D01*
X146500000Y-101599570D02*
X146500000Y-96000000D01*
X173028139Y-118971861D02*
X173028139Y-123028139D01*
X173028139Y-123028139D02*
X181000000Y-131000000D01*
X181000000Y-131000000D02*
X181920000Y-131000000D01*
X181920000Y-131000000D02*
X184040000Y-133120000D01*
X184040000Y-133120000D02*
X184040000Y-133620000D01*
D33*
X172000000Y-117046900D02*
X172000000Y-116796900D01*
X172000000Y-116796900D02*
X172046900Y-116750000D01*
D32*
X172000000Y-119500000D02*
X172000000Y-117046900D01*
X171500000Y-120000000D02*
X172000000Y-119500000D01*
D33*
X178096000Y-116000000D02*
X177542174Y-116000000D01*
X177542174Y-116000000D02*
X177407017Y-115864843D01*
X178960000Y-118380000D02*
X178960000Y-116864000D01*
X178960000Y-116864000D02*
X178096000Y-116000000D01*
D32*
X141000000Y-114000000D02*
X142000000Y-114000000D01*
X138460000Y-115540000D02*
X139460000Y-115540000D01*
X139460000Y-115540000D02*
X141000000Y-114000000D01*
X136500000Y-117500000D02*
X136500000Y-123997980D01*
X136500000Y-123997980D02*
X136000520Y-124497460D01*
X138460000Y-108000000D02*
X138460000Y-115540000D01*
X138460000Y-115540000D02*
X136500000Y-117500000D01*
X143540000Y-108000000D02*
X143540000Y-117460000D01*
X143540000Y-117460000D02*
X143500000Y-117500000D01*
X165000000Y-115500000D02*
X164500000Y-115500000D01*
X167000000Y-115500000D02*
X165000000Y-115500000D01*
X168580000Y-117080000D02*
X167000000Y-115500000D01*
X168580000Y-133000000D02*
X168580000Y-117080000D01*
X155000000Y-95500000D02*
X153788000Y-95500000D01*
X153788000Y-95500000D02*
X151483999Y-93195999D01*
X151483999Y-93195999D02*
X143204001Y-93195999D01*
X142799999Y-93600001D02*
X140400000Y-96000000D01*
X143204001Y-93195999D02*
X142799999Y-93600001D01*
X149945990Y-107270522D02*
X149945990Y-120711990D01*
X149945990Y-120711990D02*
X146160520Y-124497460D01*
X153333999Y-96666001D02*
X150500000Y-99500000D01*
X150500000Y-99500000D02*
X150500000Y-106716512D01*
X150500000Y-106716512D02*
X149945990Y-107270522D01*
X162620000Y-95500000D02*
X161408000Y-95500000D01*
X161408000Y-95500000D02*
X160241999Y-96666001D01*
X160241999Y-96666001D02*
X153333999Y-96666001D01*
X153000000Y-100840000D02*
X154660000Y-102500000D01*
X154660000Y-102500000D02*
X159414213Y-102500000D01*
X159414213Y-102500000D02*
X160000000Y-101914213D01*
X160000000Y-101914213D02*
X160000000Y-100500000D01*
X173858514Y-106753066D02*
X174105448Y-107000000D01*
X154403491Y-112096509D02*
X159746934Y-106753066D01*
X150040000Y-140000000D02*
X154403491Y-135636509D01*
X159746934Y-106753066D02*
X173858514Y-106753066D01*
X174105448Y-107000000D02*
X176780000Y-107000000D01*
X176780000Y-107000000D02*
X179000000Y-109220000D01*
X154403491Y-135636509D02*
X154403491Y-112096509D01*
X179000000Y-109220000D02*
X179000000Y-109620000D01*
X170000000Y-112500000D02*
X170000000Y-113000000D01*
X171000000Y-111500000D02*
X170000000Y-112500000D01*
X177520000Y-111500000D02*
X171000000Y-111500000D01*
X179000000Y-109620000D02*
X179000000Y-110020000D01*
X179000000Y-110020000D02*
X177520000Y-111500000D01*
D33*
X181540000Y-109620000D02*
X178388990Y-106468990D01*
X146118999Y-138695199D02*
X146118999Y-141304801D01*
X151421001Y-140662881D02*
X151421001Y-140646803D01*
X178388990Y-106468990D02*
X174325399Y-106468990D01*
X174325399Y-106468990D02*
X174078465Y-106222056D01*
X174078465Y-106222056D02*
X155734816Y-106222056D01*
X155734816Y-106222056D02*
X151619509Y-110337363D01*
X151619509Y-110337363D02*
X151619509Y-132619509D01*
X151619509Y-132619509D02*
X153872481Y-134872481D01*
X153872481Y-134872481D02*
X150125963Y-138618999D01*
X150125963Y-138618999D02*
X146195199Y-138618999D01*
X146195199Y-138618999D02*
X146118999Y-138695199D01*
X146118999Y-141304801D02*
X146195199Y-141381001D01*
X146195199Y-141381001D02*
X150702881Y-141381001D01*
X150702881Y-141381001D02*
X151421001Y-140662881D01*
X151421001Y-140646803D02*
X152155199Y-141381001D01*
X152155199Y-141381001D02*
X154618999Y-141381001D01*
X154618999Y-141381001D02*
X155000001Y-140999999D01*
X155000001Y-140999999D02*
X156000000Y-140000000D01*
D32*
X152354948Y-105645052D02*
X174317470Y-105645052D01*
X162000000Y-140000000D02*
X161000001Y-140999999D01*
X150500000Y-107500000D02*
X152354948Y-105645052D01*
X146554010Y-136445990D02*
X151054011Y-136445989D01*
X161000001Y-141187201D02*
X158187202Y-144000000D01*
X147989310Y-144000000D02*
X145500000Y-141510690D01*
X174317470Y-105645052D02*
X174564397Y-105891979D01*
X161000001Y-140999999D02*
X161000001Y-141187201D01*
X150500000Y-134000000D02*
X150500000Y-107500000D01*
X151054011Y-136445989D02*
X152000000Y-135500000D01*
X180751980Y-105891980D02*
X184080000Y-109220000D01*
X152000000Y-135500000D02*
X150500000Y-134000000D01*
X174564397Y-105891979D02*
X180751980Y-105891980D01*
X145500000Y-137500000D02*
X146554010Y-136445990D01*
X158187202Y-144000000D02*
X147989310Y-144000000D01*
X145500000Y-141510690D02*
X145500000Y-137500000D01*
X184080000Y-109220000D02*
X184080000Y-109620000D01*
X168040000Y-140000000D02*
X171540000Y-143500000D01*
X171540000Y-143500000D02*
X190617922Y-143500000D01*
X193444001Y-140673921D02*
X193444001Y-117944001D01*
X190617922Y-143500000D02*
X193444001Y-140673921D01*
X193444001Y-117944001D02*
X186620000Y-111120000D01*
X186620000Y-111120000D02*
X186620000Y-109620000D01*
X175945990Y-112054010D02*
X175000000Y-113000000D01*
X177749478Y-112054010D02*
X175945990Y-112054010D01*
X183500000Y-112000000D02*
X177803488Y-112000000D01*
X177803488Y-112000000D02*
X177749478Y-112054010D01*
X181500000Y-113500000D02*
X176000000Y-113500000D01*
X182500000Y-114000000D02*
X181500000Y-113500000D01*
X190000000Y-106000000D02*
X186620000Y-102620000D01*
X186620000Y-102620000D02*
X186620000Y-102000000D01*
X192889991Y-118173479D02*
X192216512Y-117500000D01*
X192216512Y-117500000D02*
X191500000Y-117500000D01*
X192889991Y-136610009D02*
X192889991Y-118173479D01*
X174000000Y-140000000D02*
X177000000Y-137000000D01*
X177000000Y-137000000D02*
X192500000Y-137000000D01*
X192500000Y-137000000D02*
X192889991Y-136610009D01*
D33*
X172500000Y-134750000D02*
X172250000Y-134750000D01*
X173013010Y-135263010D02*
X172500000Y-134750000D01*
X175218037Y-114021308D02*
X175472828Y-114276099D01*
X185183010Y-134593450D02*
X184513450Y-135263010D01*
X175472828Y-114276099D02*
X177090533Y-114276099D01*
X180103010Y-117288576D02*
X180103010Y-127566550D01*
X184513450Y-135263010D02*
X173013010Y-135263010D01*
X177090533Y-114276099D02*
X180103010Y-117288576D01*
X180103010Y-127566550D02*
X185183010Y-132646550D01*
X185183010Y-132646550D02*
X185183010Y-134593450D01*
D32*
X194190901Y-114690901D02*
X184080000Y-104580000D01*
X184080000Y-104580000D02*
X184080000Y-102000000D01*
X194190901Y-137404001D02*
X194190901Y-114690901D01*
X182485990Y-137554010D02*
X192307110Y-137554010D01*
X192307110Y-137554010D02*
X192500000Y-137746900D01*
X180040000Y-140000000D02*
X182485990Y-137554010D01*
X164500000Y-107500000D02*
X164500036Y-107500036D01*
X164500036Y-107500036D02*
X173500000Y-107500036D01*
X164000000Y-108000000D02*
X164500000Y-107500000D01*
X169500000Y-140676512D02*
X169500000Y-138391013D01*
X164000000Y-110047202D02*
X164000000Y-108000000D01*
X170500000Y-116547202D02*
X164000000Y-110047202D01*
X164000000Y-108000000D02*
X164092806Y-107907194D01*
X184508223Y-142945990D02*
X172445990Y-142945990D01*
X172445990Y-142945990D02*
X171000000Y-141500000D01*
X170323488Y-141500000D02*
X169500000Y-140676512D01*
X169500000Y-138391013D02*
X170500000Y-137391013D01*
X186040000Y-140000000D02*
X186040000Y-141414213D01*
X186040000Y-141414213D02*
X184508223Y-142945990D01*
X171000000Y-141500000D02*
X170323488Y-141500000D01*
X170500000Y-137391013D02*
X170500000Y-116547202D01*
X185284010Y-128799077D02*
X185284010Y-113000000D01*
X185284010Y-113000000D02*
X185284010Y-107284010D01*
X184000000Y-113000000D02*
X185284010Y-113000000D01*
X183284010Y-107284010D02*
X183284010Y-106684010D01*
X183284010Y-106684010D02*
X179000000Y-102400000D01*
X179000000Y-102400000D02*
X179000000Y-102000000D01*
X185284010Y-107284010D02*
X183284010Y-107284010D01*
X192000000Y-136000000D02*
X192000000Y-135515067D01*
X192000000Y-135515067D02*
X185284010Y-128799077D01*
X191562233Y-138108020D02*
X191192890Y-138108020D01*
X191192890Y-138108020D02*
X191000000Y-138300910D01*
X192040000Y-140000000D02*
X192040000Y-138585787D01*
X192040000Y-138585787D02*
X191562233Y-138108020D01*
X169274992Y-112320489D02*
X169274992Y-111725008D01*
X169274992Y-111725008D02*
X169880000Y-111120000D01*
X169880000Y-111120000D02*
X170280000Y-111120000D01*
X170280000Y-111120000D02*
X171380000Y-110020000D01*
X171380000Y-110020000D02*
X171380000Y-109620000D01*
X169500000Y-116500000D02*
X169448260Y-116551740D01*
X169945990Y-116945990D02*
X169500000Y-116500000D01*
X169500000Y-121500000D02*
X169945990Y-121054010D01*
X169945990Y-121054010D02*
X169945990Y-116945990D01*
X167500000Y-125010000D02*
X167500000Y-123500000D01*
X166660000Y-126000000D02*
X166660000Y-125850000D01*
X166660000Y-125850000D02*
X167500000Y-125010000D01*
X164040000Y-135000000D02*
X156000000Y-135000000D01*
X166040000Y-133000000D02*
X164040000Y-135000000D01*
X142000000Y-133500000D02*
X142000000Y-140000000D01*
X166660000Y-126000000D02*
X166660000Y-132380000D01*
X166660000Y-132380000D02*
X166040000Y-133000000D01*
X168500000Y-113000000D02*
X168500000Y-109960000D01*
X168500000Y-109960000D02*
X168840000Y-109620000D01*
X164120000Y-126000000D02*
X164120000Y-132380000D01*
X164120000Y-132380000D02*
X163500000Y-133000000D01*
X160413990Y-110586010D02*
X162000000Y-109000000D01*
X160000000Y-123208000D02*
X160000000Y-120793033D01*
X160000000Y-120793033D02*
X160413990Y-120379043D01*
X160413990Y-120379043D02*
X160413990Y-110586010D01*
X161580000Y-126000000D02*
X161580000Y-124788000D01*
X161580000Y-124788000D02*
X160000000Y-123208000D01*
X161580000Y-126000000D02*
X161580000Y-132380000D01*
X161580000Y-132380000D02*
X160960000Y-133000000D01*
X156752000Y-122500000D02*
X156000000Y-122500000D01*
X159040000Y-126000000D02*
X159040000Y-124788000D01*
X159040000Y-124788000D02*
X156752000Y-122500000D01*
X149000000Y-107000000D02*
X149000000Y-120000000D01*
X159040000Y-126000000D02*
X159040000Y-132380000D01*
X159040000Y-132380000D02*
X158420000Y-133000000D01*
X157873990Y-111626010D02*
X161500000Y-108000000D01*
X157500000Y-121000000D02*
X157873990Y-120626010D01*
X157873990Y-120626010D02*
X157873990Y-111626010D01*
X156500000Y-126000000D02*
X156500000Y-132380000D01*
X156500000Y-132380000D02*
X155880000Y-133000000D01*
D33*
G36*
X193871023Y-92397167D02*
X194609439Y-92890561D01*
X195102833Y-93628977D01*
X195290000Y-94569931D01*
X195290000Y-143430069D01*
X195102833Y-144371023D01*
X194609439Y-145109439D01*
X193871023Y-145602833D01*
X192930069Y-145790000D01*
X135569931Y-145790000D01*
X134628977Y-145602833D01*
X133890561Y-145109439D01*
X133397167Y-144371023D01*
X133210000Y-143430069D01*
X133210000Y-141152532D01*
X136527073Y-141152532D01*
X136625736Y-141419387D01*
X137235461Y-141645908D01*
X137885460Y-141621856D01*
X138374264Y-141419387D01*
X138472927Y-141152532D01*
X137500000Y-140179605D01*
X136527073Y-141152532D01*
X133210000Y-141152532D01*
X133210000Y-139735461D01*
X135854092Y-139735461D01*
X135878144Y-140385460D01*
X136080613Y-140874264D01*
X136347468Y-140972927D01*
X137320395Y-140000000D01*
X137679605Y-140000000D01*
X138652532Y-140972927D01*
X138919387Y-140874264D01*
X139145908Y-140264539D01*
X139121856Y-139614540D01*
X138919387Y-139125736D01*
X138652532Y-139027073D01*
X137679605Y-140000000D01*
X137320395Y-140000000D01*
X136347468Y-139027073D01*
X136080613Y-139125736D01*
X135854092Y-139735461D01*
X133210000Y-139735461D01*
X133210000Y-138847468D01*
X136527073Y-138847468D01*
X137500000Y-139820395D01*
X138472927Y-138847468D01*
X138374264Y-138580613D01*
X137764539Y-138354092D01*
X137114540Y-138378144D01*
X136625736Y-138580613D01*
X136527073Y-138847468D01*
X133210000Y-138847468D01*
X133210000Y-134652532D01*
X136527073Y-134652532D01*
X136625736Y-134919387D01*
X137235461Y-135145908D01*
X137885460Y-135121856D01*
X138374264Y-134919387D01*
X138472927Y-134652532D01*
X137500000Y-133679605D01*
X136527073Y-134652532D01*
X133210000Y-134652532D01*
X133210000Y-133235461D01*
X135854092Y-133235461D01*
X135878144Y-133885460D01*
X136080613Y-134374264D01*
X136347468Y-134472927D01*
X137320395Y-133500000D01*
X137679605Y-133500000D01*
X138652532Y-134472927D01*
X138919387Y-134374264D01*
X139123893Y-133823795D01*
X140364716Y-133823795D01*
X140613106Y-134424943D01*
X141072637Y-134885278D01*
X141215000Y-134944392D01*
X141215000Y-138555283D01*
X141075057Y-138613106D01*
X140614722Y-139072637D01*
X140365284Y-139673352D01*
X140364716Y-140323795D01*
X140613106Y-140924943D01*
X141072637Y-141385278D01*
X141673352Y-141634716D01*
X142323795Y-141635284D01*
X142924943Y-141386894D01*
X143385278Y-140927363D01*
X143634716Y-140326648D01*
X143635284Y-139676205D01*
X143386894Y-139075057D01*
X142927363Y-138614722D01*
X142785000Y-138555608D01*
X142785000Y-134944717D01*
X142924943Y-134886894D01*
X143385278Y-134427363D01*
X143634716Y-133826648D01*
X143635284Y-133176205D01*
X143386894Y-132575057D01*
X142927363Y-132114722D01*
X142326648Y-131865284D01*
X141676205Y-131864716D01*
X141075057Y-132113106D01*
X140614722Y-132572637D01*
X140365284Y-133173352D01*
X140364716Y-133823795D01*
X139123893Y-133823795D01*
X139145908Y-133764539D01*
X139121856Y-133114540D01*
X138919387Y-132625736D01*
X138652532Y-132527073D01*
X137679605Y-133500000D01*
X137320395Y-133500000D01*
X136347468Y-132527073D01*
X136080613Y-132625736D01*
X135854092Y-133235461D01*
X133210000Y-133235461D01*
X133210000Y-132347468D01*
X136527073Y-132347468D01*
X137500000Y-133320395D01*
X138472927Y-132347468D01*
X138374264Y-132080613D01*
X137764539Y-131854092D01*
X137114540Y-131878144D01*
X136625736Y-132080613D01*
X136527073Y-132347468D01*
X133210000Y-132347468D01*
X133210000Y-123647830D01*
X134503450Y-123647830D01*
X134503450Y-125347090D01*
X134547728Y-125582407D01*
X134686800Y-125798531D01*
X134899000Y-125943521D01*
X135150890Y-125994530D01*
X136850150Y-125994530D01*
X137085467Y-125950252D01*
X137301591Y-125811180D01*
X137446581Y-125598980D01*
X137497590Y-125347090D01*
X137497590Y-123647830D01*
X137453312Y-123412513D01*
X137314240Y-123196389D01*
X137285000Y-123176410D01*
X137285000Y-118772038D01*
X137385317Y-118753162D01*
X137601441Y-118614090D01*
X137678937Y-118500671D01*
X137780590Y-118399018D01*
X137836271Y-118629611D01*
X138319078Y-118797622D01*
X138829428Y-118768083D01*
X139163729Y-118629611D01*
X139219410Y-118399016D01*
X138500000Y-117679605D01*
X138485858Y-117693748D01*
X138306252Y-117514142D01*
X138320395Y-117500000D01*
X138679605Y-117500000D01*
X139399016Y-118219410D01*
X139629611Y-118163729D01*
X139797622Y-117680922D01*
X139768083Y-117170572D01*
X139629611Y-116836271D01*
X139399016Y-116780590D01*
X138679605Y-117500000D01*
X138320395Y-117500000D01*
X138306252Y-117485858D01*
X138485858Y-117306252D01*
X138500000Y-117320395D01*
X139219410Y-116600984D01*
X139163729Y-116370389D01*
X139033296Y-116325000D01*
X139460000Y-116325000D01*
X139760407Y-116265245D01*
X140015079Y-116095079D01*
X141325158Y-114785000D01*
X141401877Y-114785000D01*
X141445341Y-114828540D01*
X141804630Y-114977730D01*
X142193663Y-114978069D01*
X142553212Y-114829507D01*
X142755000Y-114628071D01*
X142755000Y-116220436D01*
X142614683Y-116246838D01*
X142398559Y-116385910D01*
X142253569Y-116598110D01*
X142202560Y-116850000D01*
X142202560Y-118150000D01*
X142246838Y-118385317D01*
X142385910Y-118601441D01*
X142598110Y-118746431D01*
X142850000Y-118797440D01*
X144150000Y-118797440D01*
X144385317Y-118753162D01*
X144601441Y-118614090D01*
X144678937Y-118500671D01*
X144780590Y-118399018D01*
X144836271Y-118629611D01*
X145319078Y-118797622D01*
X145829428Y-118768083D01*
X146163729Y-118629611D01*
X146219410Y-118399016D01*
X145500000Y-117679605D01*
X145485858Y-117693748D01*
X145306252Y-117514142D01*
X145320395Y-117500000D01*
X145679605Y-117500000D01*
X146399016Y-118219410D01*
X146629611Y-118163729D01*
X146797622Y-117680922D01*
X146768083Y-117170572D01*
X146629611Y-116836271D01*
X146399016Y-116780590D01*
X145679605Y-117500000D01*
X145320395Y-117500000D01*
X145306252Y-117485858D01*
X145485858Y-117306252D01*
X145500000Y-117320395D01*
X146219410Y-116600984D01*
X146163729Y-116370389D01*
X145680922Y-116202378D01*
X145170572Y-116231917D01*
X144836271Y-116370389D01*
X144780590Y-116600982D01*
X144678928Y-116499320D01*
X144614090Y-116398559D01*
X144401890Y-116253569D01*
X144325000Y-116237998D01*
X144325000Y-110173876D01*
X144589792Y-109996948D01*
X144911619Y-109515299D01*
X145024630Y-108947156D01*
X145024630Y-107052844D01*
X144911619Y-106484701D01*
X144589792Y-106003052D01*
X144108143Y-105681225D01*
X143540000Y-105568214D01*
X142971857Y-105681225D01*
X142490208Y-106003052D01*
X142264484Y-106340873D01*
X141959989Y-105959976D01*
X141450810Y-105679351D01*
X141356832Y-105658460D01*
X141127000Y-105779786D01*
X141127000Y-107873000D01*
X141147000Y-107873000D01*
X141147000Y-108127000D01*
X141127000Y-108127000D01*
X141127000Y-110220214D01*
X141356832Y-110341540D01*
X141450810Y-110320649D01*
X141959989Y-110040024D01*
X142264484Y-109659127D01*
X142490208Y-109996948D01*
X142755000Y-110173876D01*
X142755000Y-113372151D01*
X142554659Y-113171460D01*
X142195370Y-113022270D01*
X141806337Y-113021931D01*
X141446788Y-113170493D01*
X141402203Y-113215000D01*
X141000000Y-113215000D01*
X140699594Y-113274755D01*
X140444921Y-113444921D01*
X139245000Y-114644842D01*
X139245000Y-110173876D01*
X139509792Y-109996948D01*
X139735516Y-109659127D01*
X140040011Y-110040024D01*
X140549190Y-110320649D01*
X140643168Y-110341540D01*
X140873000Y-110220214D01*
X140873000Y-108127000D01*
X140853000Y-108127000D01*
X140853000Y-107873000D01*
X140873000Y-107873000D01*
X140873000Y-105779786D01*
X140643168Y-105658460D01*
X140549190Y-105679351D01*
X140040011Y-105959976D01*
X139735516Y-106340873D01*
X139509792Y-106003052D01*
X139028143Y-105681225D01*
X138460000Y-105568214D01*
X137891857Y-105681225D01*
X137410208Y-106003052D01*
X137088381Y-106484701D01*
X136975370Y-107052844D01*
X136975370Y-108947156D01*
X137088381Y-109515299D01*
X137410208Y-109996948D01*
X137675000Y-110173876D01*
X137675000Y-115214842D01*
X136687282Y-116202560D01*
X135850000Y-116202560D01*
X135614683Y-116246838D01*
X135398559Y-116385910D01*
X135253569Y-116598110D01*
X135202560Y-116850000D01*
X135202560Y-118150000D01*
X135246838Y-118385317D01*
X135385910Y-118601441D01*
X135598110Y-118746431D01*
X135715000Y-118770102D01*
X135715000Y-123000390D01*
X135150890Y-123000390D01*
X134915573Y-123044668D01*
X134699449Y-123183740D01*
X134554459Y-123395940D01*
X134503450Y-123647830D01*
X133210000Y-123647830D01*
X133210000Y-96601050D01*
X137364474Y-96601050D01*
X137825552Y-97716943D01*
X138678566Y-98571447D01*
X139793653Y-99034472D01*
X140442646Y-99035039D01*
X140118553Y-99358566D01*
X139655528Y-100473653D01*
X139654474Y-101681050D01*
X140115552Y-102796943D01*
X140968566Y-103651447D01*
X142083653Y-104114472D01*
X143291050Y-104115526D01*
X144406943Y-103654448D01*
X145261447Y-102801434D01*
X145724472Y-101686347D01*
X145725526Y-100478950D01*
X145264448Y-99363057D01*
X144936963Y-99035000D01*
X146214250Y-99035000D01*
X146373000Y-98876250D01*
X146373000Y-96127000D01*
X146627000Y-96127000D01*
X146627000Y-98876250D01*
X146785750Y-99035000D01*
X149026309Y-99035000D01*
X149259698Y-98938327D01*
X149438327Y-98759699D01*
X149535000Y-98526310D01*
X149535000Y-96285750D01*
X149376250Y-96127000D01*
X146627000Y-96127000D01*
X146373000Y-96127000D01*
X143623750Y-96127000D01*
X143465000Y-96285750D01*
X143465000Y-98115559D01*
X143296347Y-98045528D01*
X142647354Y-98044961D01*
X142971447Y-97721434D01*
X143434472Y-96606347D01*
X143435526Y-95398950D01*
X143048319Y-94461839D01*
X143465000Y-94045158D01*
X143465000Y-95714250D01*
X143623750Y-95873000D01*
X146373000Y-95873000D01*
X146373000Y-95853000D01*
X146627000Y-95853000D01*
X146627000Y-95873000D01*
X149376250Y-95873000D01*
X149535000Y-95714250D01*
X149535000Y-93980999D01*
X151158841Y-93980999D01*
X153104495Y-95926653D01*
X153033593Y-95940756D01*
X152778920Y-96110922D01*
X149944921Y-98944921D01*
X149774755Y-99199593D01*
X149715000Y-99500000D01*
X149715000Y-106332081D01*
X149554659Y-106171460D01*
X149195370Y-106022270D01*
X148806337Y-106021931D01*
X148446788Y-106170493D01*
X148171460Y-106445341D01*
X148022270Y-106804630D01*
X148021931Y-107193663D01*
X148170493Y-107553212D01*
X148215000Y-107597797D01*
X148215000Y-119401877D01*
X148171460Y-119445341D01*
X148022270Y-119804630D01*
X148021931Y-120193663D01*
X148170493Y-120553212D01*
X148445341Y-120828540D01*
X148638906Y-120908916D01*
X146511964Y-123035858D01*
X146457127Y-123013088D01*
X145866504Y-123012572D01*
X145320643Y-123238118D01*
X144902646Y-123655386D01*
X144676148Y-124200853D01*
X144675632Y-124791476D01*
X144901178Y-125337337D01*
X145318446Y-125755334D01*
X145863913Y-125981832D01*
X146454536Y-125982348D01*
X147000397Y-125756802D01*
X147418394Y-125339534D01*
X147644892Y-124794067D01*
X147645408Y-124203444D01*
X147621809Y-124146329D01*
X149715000Y-122053138D01*
X149715000Y-134000000D01*
X149774755Y-134300407D01*
X149944921Y-134555079D01*
X150889842Y-135500000D01*
X150728853Y-135660989D01*
X146554010Y-135660990D01*
X146253603Y-135720745D01*
X145998931Y-135890911D01*
X144944921Y-136944921D01*
X144774755Y-137199593D01*
X144725643Y-137446494D01*
X144715000Y-137500000D01*
X144715000Y-141510690D01*
X144774755Y-141811097D01*
X144944921Y-142065769D01*
X147434231Y-144555079D01*
X147688903Y-144725245D01*
X147989310Y-144785000D01*
X158187202Y-144785000D01*
X158487609Y-144725245D01*
X158742281Y-144555079D01*
X161555077Y-141742282D01*
X161555080Y-141742280D01*
X161637029Y-141619634D01*
X161673352Y-141634716D01*
X162323795Y-141635284D01*
X162924943Y-141386894D01*
X163385278Y-140927363D01*
X163634716Y-140326648D01*
X163635284Y-139676205D01*
X163386894Y-139075057D01*
X162927363Y-138614722D01*
X162326648Y-138365284D01*
X161676205Y-138364716D01*
X161075057Y-138613106D01*
X161008426Y-138679621D01*
X160924090Y-138548559D01*
X160711890Y-138403569D01*
X160460000Y-138352560D01*
X158460000Y-138352560D01*
X158224683Y-138396838D01*
X158008559Y-138535910D01*
X157863569Y-138748110D01*
X157812560Y-139000000D01*
X157812560Y-141000000D01*
X157856838Y-141235317D01*
X157995910Y-141451441D01*
X158208110Y-141596431D01*
X158460000Y-141647440D01*
X159429605Y-141647440D01*
X157862044Y-143215000D01*
X148314468Y-143215000D01*
X147242469Y-142143001D01*
X150702881Y-142143001D01*
X150994486Y-142084997D01*
X151241696Y-141919816D01*
X151429040Y-141732472D01*
X151616384Y-141919817D01*
X151694783Y-141972201D01*
X151863594Y-142084997D01*
X152155199Y-142143001D01*
X154618999Y-142143001D01*
X154910604Y-142084997D01*
X155157814Y-141919816D01*
X155510526Y-141567105D01*
X155673352Y-141634716D01*
X156323795Y-141635284D01*
X156924943Y-141386894D01*
X157385278Y-140927363D01*
X157634716Y-140326648D01*
X157635284Y-139676205D01*
X157386894Y-139075057D01*
X156927363Y-138614722D01*
X156326648Y-138365284D01*
X155676205Y-138364716D01*
X155075057Y-138613106D01*
X155008426Y-138679621D01*
X154924090Y-138548559D01*
X154711890Y-138403569D01*
X154460000Y-138352560D01*
X152797598Y-138352560D01*
X154958570Y-136191588D01*
X155128736Y-135936916D01*
X155188491Y-135636509D01*
X155188491Y-135571241D01*
X155445341Y-135828540D01*
X155804630Y-135977730D01*
X156193663Y-135978069D01*
X156553212Y-135829507D01*
X156597797Y-135785000D01*
X164040000Y-135785000D01*
X164340407Y-135725245D01*
X164595079Y-135555079D01*
X165764389Y-134385769D01*
X166011887Y-134435000D01*
X166068113Y-134435000D01*
X166617264Y-134325767D01*
X167082811Y-134014698D01*
X167153150Y-133909428D01*
X167176838Y-134035317D01*
X167315910Y-134251441D01*
X167528110Y-134396431D01*
X167780000Y-134447440D01*
X169380000Y-134447440D01*
X169615317Y-134403162D01*
X169715000Y-134339018D01*
X169715000Y-137065855D01*
X168944921Y-137835934D01*
X168774755Y-138090606D01*
X168725344Y-138339010D01*
X168715000Y-138391013D01*
X168715000Y-138509932D01*
X168366648Y-138365284D01*
X167716205Y-138364716D01*
X167115057Y-138613106D01*
X167048426Y-138679621D01*
X166964090Y-138548559D01*
X166751890Y-138403569D01*
X166500000Y-138352560D01*
X164500000Y-138352560D01*
X164264683Y-138396838D01*
X164048559Y-138535910D01*
X163903569Y-138748110D01*
X163852560Y-139000000D01*
X163852560Y-141000000D01*
X163896838Y-141235317D01*
X164035910Y-141451441D01*
X164248110Y-141596431D01*
X164500000Y-141647440D01*
X166500000Y-141647440D01*
X166735317Y-141603162D01*
X166951441Y-141464090D01*
X167048910Y-141321439D01*
X167112637Y-141385278D01*
X167713352Y-141634716D01*
X168363795Y-141635284D01*
X168506261Y-141576418D01*
X170984919Y-144055076D01*
X170984921Y-144055079D01*
X171239594Y-144225245D01*
X171540000Y-144285000D01*
X190617922Y-144285000D01*
X190918329Y-144225245D01*
X191173001Y-144055079D01*
X193999080Y-141229000D01*
X194169246Y-140974328D01*
X194229001Y-140673921D01*
X194229001Y-138381934D01*
X194384564Y-138382070D01*
X194744113Y-138233508D01*
X195019441Y-137958660D01*
X195168631Y-137599371D01*
X195168970Y-137210338D01*
X195020408Y-136850789D01*
X194975901Y-136806204D01*
X194975901Y-114690901D01*
X194942358Y-114522270D01*
X194916146Y-114390494D01*
X194745980Y-114135822D01*
X184865000Y-104254842D01*
X184865000Y-103604128D01*
X185094698Y-103450648D01*
X185350000Y-103068562D01*
X185605302Y-103450648D01*
X186070849Y-103761717D01*
X186620000Y-103870950D01*
X186737433Y-103847591D01*
X189021985Y-106132143D01*
X189021931Y-106193663D01*
X189170493Y-106553212D01*
X189445341Y-106828540D01*
X189804630Y-106977730D01*
X190193663Y-106978069D01*
X190553212Y-106829507D01*
X190828540Y-106554659D01*
X190977730Y-106195370D01*
X190978069Y-105806337D01*
X190829507Y-105446788D01*
X190554659Y-105171460D01*
X190195370Y-105022270D01*
X190132373Y-105022215D01*
X187970569Y-102860411D01*
X188055000Y-102435950D01*
X188055000Y-101564050D01*
X187945767Y-101014899D01*
X187634698Y-100549352D01*
X187169151Y-100238283D01*
X186620000Y-100129050D01*
X186070849Y-100238283D01*
X185605302Y-100549352D01*
X185350000Y-100931438D01*
X185094698Y-100549352D01*
X184629151Y-100238283D01*
X184080000Y-100129050D01*
X183530849Y-100238283D01*
X183065302Y-100549352D01*
X182810000Y-100931438D01*
X182554698Y-100549352D01*
X182089151Y-100238283D01*
X181540000Y-100129050D01*
X180990849Y-100238283D01*
X180525302Y-100549352D01*
X180270000Y-100931438D01*
X180014698Y-100549352D01*
X179549151Y-100238283D01*
X179000000Y-100129050D01*
X178450849Y-100238283D01*
X177985302Y-100549352D01*
X177730000Y-100931438D01*
X177474698Y-100549352D01*
X177009151Y-100238283D01*
X176460000Y-100129050D01*
X175910849Y-100238283D01*
X175445302Y-100549352D01*
X175190000Y-100931438D01*
X174934698Y-100549352D01*
X174469151Y-100238283D01*
X173920000Y-100129050D01*
X173370849Y-100238283D01*
X172905302Y-100549352D01*
X172650000Y-100931438D01*
X172394698Y-100549352D01*
X171929151Y-100238283D01*
X171380000Y-100129050D01*
X170830849Y-100238283D01*
X170365302Y-100549352D01*
X170110000Y-100931438D01*
X169854698Y-100549352D01*
X169389151Y-100238283D01*
X168840000Y-100129050D01*
X168290849Y-100238283D01*
X167825302Y-100549352D01*
X167570000Y-100931438D01*
X167314698Y-100549352D01*
X166849151Y-100238283D01*
X166300000Y-100129050D01*
X165750849Y-100238283D01*
X165285302Y-100549352D01*
X164974233Y-101014899D01*
X164865000Y-101564050D01*
X164865000Y-102435950D01*
X164974233Y-102985101D01*
X165285302Y-103450648D01*
X165750849Y-103761717D01*
X166300000Y-103870950D01*
X166849151Y-103761717D01*
X167314698Y-103450648D01*
X167570000Y-103068562D01*
X167825302Y-103450648D01*
X168290849Y-103761717D01*
X168840000Y-103870950D01*
X169389151Y-103761717D01*
X169854698Y-103450648D01*
X170110000Y-103068562D01*
X170365302Y-103450648D01*
X170830849Y-103761717D01*
X171380000Y-103870950D01*
X171929151Y-103761717D01*
X172394698Y-103450648D01*
X172650000Y-103068562D01*
X172905302Y-103450648D01*
X173370849Y-103761717D01*
X173920000Y-103870950D01*
X174469151Y-103761717D01*
X174934698Y-103450648D01*
X175190000Y-103068562D01*
X175445302Y-103450648D01*
X175910849Y-103761717D01*
X176460000Y-103870950D01*
X177009151Y-103761717D01*
X177474698Y-103450648D01*
X177730000Y-103068562D01*
X177985302Y-103450648D01*
X178450849Y-103761717D01*
X179000000Y-103870950D01*
X179300933Y-103811091D01*
X180596822Y-105106980D01*
X174889555Y-105106979D01*
X174872549Y-105089973D01*
X174617877Y-104919807D01*
X174317470Y-104860052D01*
X152354953Y-104860052D01*
X152354948Y-104860051D01*
X152054542Y-104919807D01*
X151799869Y-105089973D01*
X151285000Y-105604842D01*
X151285000Y-101163694D01*
X151365226Y-101163694D01*
X151613538Y-101764655D01*
X152072927Y-102224846D01*
X152673453Y-102474206D01*
X153323694Y-102474774D01*
X153465870Y-102416028D01*
X154104919Y-103055076D01*
X154104921Y-103055079D01*
X154284515Y-103175079D01*
X154359594Y-103225245D01*
X154660000Y-103285001D01*
X154660005Y-103285000D01*
X159414213Y-103285000D01*
X159714620Y-103225245D01*
X159969292Y-103055079D01*
X160555079Y-102469292D01*
X160725245Y-102214619D01*
X160778389Y-101947449D01*
X160924943Y-101886894D01*
X161385278Y-101427363D01*
X161634716Y-100826648D01*
X161635284Y-100176205D01*
X161386894Y-99575057D01*
X160927363Y-99114722D01*
X160326648Y-98865284D01*
X159676205Y-98864716D01*
X159075057Y-99113106D01*
X159012803Y-99175251D01*
X158998327Y-99140302D01*
X158819699Y-98961673D01*
X158586310Y-98865000D01*
X157745750Y-98865000D01*
X157587000Y-99023750D01*
X157587000Y-100373000D01*
X157607000Y-100373000D01*
X157607000Y-100627000D01*
X157587000Y-100627000D01*
X157587000Y-100647000D01*
X157333000Y-100647000D01*
X157333000Y-100627000D01*
X155983750Y-100627000D01*
X155825000Y-100785750D01*
X155825000Y-101626309D01*
X155861737Y-101715000D01*
X154985157Y-101715000D01*
X154576258Y-101306101D01*
X154634206Y-101166547D01*
X154634774Y-100516306D01*
X154386462Y-99915345D01*
X153927073Y-99455154D01*
X153730889Y-99373691D01*
X155825000Y-99373691D01*
X155825000Y-100214250D01*
X155983750Y-100373000D01*
X157333000Y-100373000D01*
X157333000Y-99023750D01*
X157174250Y-98865000D01*
X156333690Y-98865000D01*
X156100301Y-98961673D01*
X155921673Y-99140302D01*
X155825000Y-99373691D01*
X153730889Y-99373691D01*
X153326547Y-99205794D01*
X152676306Y-99205226D01*
X152075345Y-99453538D01*
X151615154Y-99912927D01*
X151365794Y-100513453D01*
X151365226Y-101163694D01*
X151285000Y-101163694D01*
X151285000Y-99825158D01*
X153659157Y-97451001D01*
X160241999Y-97451001D01*
X160542406Y-97391246D01*
X160728950Y-97266601D01*
X172153566Y-97266601D01*
X172358081Y-97761565D01*
X172736443Y-98140588D01*
X173231049Y-98345966D01*
X173766601Y-98346434D01*
X174261565Y-98141919D01*
X174640588Y-97763557D01*
X174845966Y-97268951D01*
X174845968Y-97266601D01*
X177233566Y-97266601D01*
X177438081Y-97761565D01*
X177816443Y-98140588D01*
X178311049Y-98345966D01*
X178846601Y-98346434D01*
X179341565Y-98141919D01*
X179720588Y-97763557D01*
X179925966Y-97268951D01*
X179926434Y-96733399D01*
X179721919Y-96238435D01*
X179343557Y-95859412D01*
X178848951Y-95654034D01*
X178313399Y-95653566D01*
X177818435Y-95858081D01*
X177439412Y-96236443D01*
X177234034Y-96731049D01*
X177233566Y-97266601D01*
X174845968Y-97266601D01*
X174846434Y-96733399D01*
X174641919Y-96238435D01*
X174263557Y-95859412D01*
X173768951Y-95654034D01*
X173233399Y-95653566D01*
X172738435Y-95858081D01*
X172359412Y-96236443D01*
X172154034Y-96731049D01*
X172153566Y-97266601D01*
X160728950Y-97266601D01*
X160797078Y-97221080D01*
X161498901Y-96519257D01*
X161905083Y-96790660D01*
X162439692Y-96897000D01*
X162800308Y-96897000D01*
X163334917Y-96790660D01*
X163788136Y-96487828D01*
X164090968Y-96034609D01*
X164197308Y-95500000D01*
X164090968Y-94965391D01*
X163788136Y-94512172D01*
X163334917Y-94209340D01*
X162800308Y-94103000D01*
X162439692Y-94103000D01*
X161905083Y-94209340D01*
X161451864Y-94512172D01*
X161302288Y-94736028D01*
X161107594Y-94774755D01*
X161107592Y-94774756D01*
X161107593Y-94774756D01*
X160852921Y-94944921D01*
X159916841Y-95881001D01*
X156559440Y-95881001D01*
X156559440Y-94738000D01*
X156515162Y-94502683D01*
X156376090Y-94286559D01*
X156163890Y-94141569D01*
X155912000Y-94090560D01*
X154088000Y-94090560D01*
X153852683Y-94134838D01*
X153658165Y-94260007D01*
X152039078Y-92640920D01*
X151784406Y-92470754D01*
X151483999Y-92410999D01*
X143204001Y-92410999D01*
X142903594Y-92470754D01*
X142648922Y-92640920D01*
X141937617Y-93352225D01*
X141006347Y-92965528D01*
X139798950Y-92964474D01*
X138683057Y-93425552D01*
X137828553Y-94278566D01*
X137365528Y-95393653D01*
X137364474Y-96601050D01*
X133210000Y-96601050D01*
X133210000Y-94569931D01*
X133397167Y-93628977D01*
X133890561Y-92890561D01*
X134628977Y-92397167D01*
X135569931Y-92210000D01*
X192930069Y-92210000D01*
X193871023Y-92397167D01*
X193871023Y-92397167D01*
G37*
X193871023Y-92397167D02*
X194609439Y-92890561D01*
X195102833Y-93628977D01*
X195290000Y-94569931D01*
X195290000Y-143430069D01*
X195102833Y-144371023D01*
X194609439Y-145109439D01*
X193871023Y-145602833D01*
X192930069Y-145790000D01*
X135569931Y-145790000D01*
X134628977Y-145602833D01*
X133890561Y-145109439D01*
X133397167Y-144371023D01*
X133210000Y-143430069D01*
X133210000Y-141152532D01*
X136527073Y-141152532D01*
X136625736Y-141419387D01*
X137235461Y-141645908D01*
X137885460Y-141621856D01*
X138374264Y-141419387D01*
X138472927Y-141152532D01*
X137500000Y-140179605D01*
X136527073Y-141152532D01*
X133210000Y-141152532D01*
X133210000Y-139735461D01*
X135854092Y-139735461D01*
X135878144Y-140385460D01*
X136080613Y-140874264D01*
X136347468Y-140972927D01*
X137320395Y-140000000D01*
X137679605Y-140000000D01*
X138652532Y-140972927D01*
X138919387Y-140874264D01*
X139145908Y-140264539D01*
X139121856Y-139614540D01*
X138919387Y-139125736D01*
X138652532Y-139027073D01*
X137679605Y-140000000D01*
X137320395Y-140000000D01*
X136347468Y-139027073D01*
X136080613Y-139125736D01*
X135854092Y-139735461D01*
X133210000Y-139735461D01*
X133210000Y-138847468D01*
X136527073Y-138847468D01*
X137500000Y-139820395D01*
X138472927Y-138847468D01*
X138374264Y-138580613D01*
X137764539Y-138354092D01*
X137114540Y-138378144D01*
X136625736Y-138580613D01*
X136527073Y-138847468D01*
X133210000Y-138847468D01*
X133210000Y-134652532D01*
X136527073Y-134652532D01*
X136625736Y-134919387D01*
X137235461Y-135145908D01*
X137885460Y-135121856D01*
X138374264Y-134919387D01*
X138472927Y-134652532D01*
X137500000Y-133679605D01*
X136527073Y-134652532D01*
X133210000Y-134652532D01*
X133210000Y-133235461D01*
X135854092Y-133235461D01*
X135878144Y-133885460D01*
X136080613Y-134374264D01*
X136347468Y-134472927D01*
X137320395Y-133500000D01*
X137679605Y-133500000D01*
X138652532Y-134472927D01*
X138919387Y-134374264D01*
X139123893Y-133823795D01*
X140364716Y-133823795D01*
X140613106Y-134424943D01*
X141072637Y-134885278D01*
X141215000Y-134944392D01*
X141215000Y-138555283D01*
X141075057Y-138613106D01*
X140614722Y-139072637D01*
X140365284Y-139673352D01*
X140364716Y-140323795D01*
X140613106Y-140924943D01*
X141072637Y-141385278D01*
X141673352Y-141634716D01*
X142323795Y-141635284D01*
X142924943Y-141386894D01*
X143385278Y-140927363D01*
X143634716Y-140326648D01*
X143635284Y-139676205D01*
X143386894Y-139075057D01*
X142927363Y-138614722D01*
X142785000Y-138555608D01*
X142785000Y-134944717D01*
X142924943Y-134886894D01*
X143385278Y-134427363D01*
X143634716Y-133826648D01*
X143635284Y-133176205D01*
X143386894Y-132575057D01*
X142927363Y-132114722D01*
X142326648Y-131865284D01*
X141676205Y-131864716D01*
X141075057Y-132113106D01*
X140614722Y-132572637D01*
X140365284Y-133173352D01*
X140364716Y-133823795D01*
X139123893Y-133823795D01*
X139145908Y-133764539D01*
X139121856Y-133114540D01*
X138919387Y-132625736D01*
X138652532Y-132527073D01*
X137679605Y-133500000D01*
X137320395Y-133500000D01*
X136347468Y-132527073D01*
X136080613Y-132625736D01*
X135854092Y-133235461D01*
X133210000Y-133235461D01*
X133210000Y-132347468D01*
X136527073Y-132347468D01*
X137500000Y-133320395D01*
X138472927Y-132347468D01*
X138374264Y-132080613D01*
X137764539Y-131854092D01*
X137114540Y-131878144D01*
X136625736Y-132080613D01*
X136527073Y-132347468D01*
X133210000Y-132347468D01*
X133210000Y-123647830D01*
X134503450Y-123647830D01*
X134503450Y-125347090D01*
X134547728Y-125582407D01*
X134686800Y-125798531D01*
X134899000Y-125943521D01*
X135150890Y-125994530D01*
X136850150Y-125994530D01*
X137085467Y-125950252D01*
X137301591Y-125811180D01*
X137446581Y-125598980D01*
X137497590Y-125347090D01*
X137497590Y-123647830D01*
X137453312Y-123412513D01*
X137314240Y-123196389D01*
X137285000Y-123176410D01*
X137285000Y-118772038D01*
X137385317Y-118753162D01*
X137601441Y-118614090D01*
X137678937Y-118500671D01*
X137780590Y-118399018D01*
X137836271Y-118629611D01*
X138319078Y-118797622D01*
X138829428Y-118768083D01*
X139163729Y-118629611D01*
X139219410Y-118399016D01*
X138500000Y-117679605D01*
X138485858Y-117693748D01*
X138306252Y-117514142D01*
X138320395Y-117500000D01*
X138679605Y-117500000D01*
X139399016Y-118219410D01*
X139629611Y-118163729D01*
X139797622Y-117680922D01*
X139768083Y-117170572D01*
X139629611Y-116836271D01*
X139399016Y-116780590D01*
X138679605Y-117500000D01*
X138320395Y-117500000D01*
X138306252Y-117485858D01*
X138485858Y-117306252D01*
X138500000Y-117320395D01*
X139219410Y-116600984D01*
X139163729Y-116370389D01*
X139033296Y-116325000D01*
X139460000Y-116325000D01*
X139760407Y-116265245D01*
X140015079Y-116095079D01*
X141325158Y-114785000D01*
X141401877Y-114785000D01*
X141445341Y-114828540D01*
X141804630Y-114977730D01*
X142193663Y-114978069D01*
X142553212Y-114829507D01*
X142755000Y-114628071D01*
X142755000Y-116220436D01*
X142614683Y-116246838D01*
X142398559Y-116385910D01*
X142253569Y-116598110D01*
X142202560Y-116850000D01*
X142202560Y-118150000D01*
X142246838Y-118385317D01*
X142385910Y-118601441D01*
X142598110Y-118746431D01*
X142850000Y-118797440D01*
X144150000Y-118797440D01*
X144385317Y-118753162D01*
X144601441Y-118614090D01*
X144678937Y-118500671D01*
X144780590Y-118399018D01*
X144836271Y-118629611D01*
X145319078Y-118797622D01*
X145829428Y-118768083D01*
X146163729Y-118629611D01*
X146219410Y-118399016D01*
X145500000Y-117679605D01*
X145485858Y-117693748D01*
X145306252Y-117514142D01*
X145320395Y-117500000D01*
X145679605Y-117500000D01*
X146399016Y-118219410D01*
X146629611Y-118163729D01*
X146797622Y-117680922D01*
X146768083Y-117170572D01*
X146629611Y-116836271D01*
X146399016Y-116780590D01*
X145679605Y-117500000D01*
X145320395Y-117500000D01*
X145306252Y-117485858D01*
X145485858Y-117306252D01*
X145500000Y-117320395D01*
X146219410Y-116600984D01*
X146163729Y-116370389D01*
X145680922Y-116202378D01*
X145170572Y-116231917D01*
X144836271Y-116370389D01*
X144780590Y-116600982D01*
X144678928Y-116499320D01*
X144614090Y-116398559D01*
X144401890Y-116253569D01*
X144325000Y-116237998D01*
X144325000Y-110173876D01*
X144589792Y-109996948D01*
X144911619Y-109515299D01*
X145024630Y-108947156D01*
X145024630Y-107052844D01*
X144911619Y-106484701D01*
X144589792Y-106003052D01*
X144108143Y-105681225D01*
X143540000Y-105568214D01*
X142971857Y-105681225D01*
X142490208Y-106003052D01*
X142264484Y-106340873D01*
X141959989Y-105959976D01*
X141450810Y-105679351D01*
X141356832Y-105658460D01*
X141127000Y-105779786D01*
X141127000Y-107873000D01*
X141147000Y-107873000D01*
X141147000Y-108127000D01*
X141127000Y-108127000D01*
X141127000Y-110220214D01*
X141356832Y-110341540D01*
X141450810Y-110320649D01*
X141959989Y-110040024D01*
X142264484Y-109659127D01*
X142490208Y-109996948D01*
X142755000Y-110173876D01*
X142755000Y-113372151D01*
X142554659Y-113171460D01*
X142195370Y-113022270D01*
X141806337Y-113021931D01*
X141446788Y-113170493D01*
X141402203Y-113215000D01*
X141000000Y-113215000D01*
X140699594Y-113274755D01*
X140444921Y-113444921D01*
X139245000Y-114644842D01*
X139245000Y-110173876D01*
X139509792Y-109996948D01*
X139735516Y-109659127D01*
X140040011Y-110040024D01*
X140549190Y-110320649D01*
X140643168Y-110341540D01*
X140873000Y-110220214D01*
X140873000Y-108127000D01*
X140853000Y-108127000D01*
X140853000Y-107873000D01*
X140873000Y-107873000D01*
X140873000Y-105779786D01*
X140643168Y-105658460D01*
X140549190Y-105679351D01*
X140040011Y-105959976D01*
X139735516Y-106340873D01*
X139509792Y-106003052D01*
X139028143Y-105681225D01*
X138460000Y-105568214D01*
X137891857Y-105681225D01*
X137410208Y-106003052D01*
X137088381Y-106484701D01*
X136975370Y-107052844D01*
X136975370Y-108947156D01*
X137088381Y-109515299D01*
X137410208Y-109996948D01*
X137675000Y-110173876D01*
X137675000Y-115214842D01*
X136687282Y-116202560D01*
X135850000Y-116202560D01*
X135614683Y-116246838D01*
X135398559Y-116385910D01*
X135253569Y-116598110D01*
X135202560Y-116850000D01*
X135202560Y-118150000D01*
X135246838Y-118385317D01*
X135385910Y-118601441D01*
X135598110Y-118746431D01*
X135715000Y-118770102D01*
X135715000Y-123000390D01*
X135150890Y-123000390D01*
X134915573Y-123044668D01*
X134699449Y-123183740D01*
X134554459Y-123395940D01*
X134503450Y-123647830D01*
X133210000Y-123647830D01*
X133210000Y-96601050D01*
X137364474Y-96601050D01*
X137825552Y-97716943D01*
X138678566Y-98571447D01*
X139793653Y-99034472D01*
X140442646Y-99035039D01*
X140118553Y-99358566D01*
X139655528Y-100473653D01*
X139654474Y-101681050D01*
X140115552Y-102796943D01*
X140968566Y-103651447D01*
X142083653Y-104114472D01*
X143291050Y-104115526D01*
X144406943Y-103654448D01*
X145261447Y-102801434D01*
X145724472Y-101686347D01*
X145725526Y-100478950D01*
X145264448Y-99363057D01*
X144936963Y-99035000D01*
X146214250Y-99035000D01*
X146373000Y-98876250D01*
X146373000Y-96127000D01*
X146627000Y-96127000D01*
X146627000Y-98876250D01*
X146785750Y-99035000D01*
X149026309Y-99035000D01*
X149259698Y-98938327D01*
X149438327Y-98759699D01*
X149535000Y-98526310D01*
X149535000Y-96285750D01*
X149376250Y-96127000D01*
X146627000Y-96127000D01*
X146373000Y-96127000D01*
X143623750Y-96127000D01*
X143465000Y-96285750D01*
X143465000Y-98115559D01*
X143296347Y-98045528D01*
X142647354Y-98044961D01*
X142971447Y-97721434D01*
X143434472Y-96606347D01*
X143435526Y-95398950D01*
X143048319Y-94461839D01*
X143465000Y-94045158D01*
X143465000Y-95714250D01*
X143623750Y-95873000D01*
X146373000Y-95873000D01*
X146373000Y-95853000D01*
X146627000Y-95853000D01*
X146627000Y-95873000D01*
X149376250Y-95873000D01*
X149535000Y-95714250D01*
X149535000Y-93980999D01*
X151158841Y-93980999D01*
X153104495Y-95926653D01*
X153033593Y-95940756D01*
X152778920Y-96110922D01*
X149944921Y-98944921D01*
X149774755Y-99199593D01*
X149715000Y-99500000D01*
X149715000Y-106332081D01*
X149554659Y-106171460D01*
X149195370Y-106022270D01*
X148806337Y-106021931D01*
X148446788Y-106170493D01*
X148171460Y-106445341D01*
X148022270Y-106804630D01*
X148021931Y-107193663D01*
X148170493Y-107553212D01*
X148215000Y-107597797D01*
X148215000Y-119401877D01*
X148171460Y-119445341D01*
X148022270Y-119804630D01*
X148021931Y-120193663D01*
X148170493Y-120553212D01*
X148445341Y-120828540D01*
X148638906Y-120908916D01*
X146511964Y-123035858D01*
X146457127Y-123013088D01*
X145866504Y-123012572D01*
X145320643Y-123238118D01*
X144902646Y-123655386D01*
X144676148Y-124200853D01*
X144675632Y-124791476D01*
X144901178Y-125337337D01*
X145318446Y-125755334D01*
X145863913Y-125981832D01*
X146454536Y-125982348D01*
X147000397Y-125756802D01*
X147418394Y-125339534D01*
X147644892Y-124794067D01*
X147645408Y-124203444D01*
X147621809Y-124146329D01*
X149715000Y-122053138D01*
X149715000Y-134000000D01*
X149774755Y-134300407D01*
X149944921Y-134555079D01*
X150889842Y-135500000D01*
X150728853Y-135660989D01*
X146554010Y-135660990D01*
X146253603Y-135720745D01*
X145998931Y-135890911D01*
X144944921Y-136944921D01*
X144774755Y-137199593D01*
X144725643Y-137446494D01*
X144715000Y-137500000D01*
X144715000Y-141510690D01*
X144774755Y-141811097D01*
X144944921Y-142065769D01*
X147434231Y-144555079D01*
X147688903Y-144725245D01*
X147989310Y-144785000D01*
X158187202Y-144785000D01*
X158487609Y-144725245D01*
X158742281Y-144555079D01*
X161555077Y-141742282D01*
X161555080Y-141742280D01*
X161637029Y-141619634D01*
X161673352Y-141634716D01*
X162323795Y-141635284D01*
X162924943Y-141386894D01*
X163385278Y-140927363D01*
X163634716Y-140326648D01*
X163635284Y-139676205D01*
X163386894Y-139075057D01*
X162927363Y-138614722D01*
X162326648Y-138365284D01*
X161676205Y-138364716D01*
X161075057Y-138613106D01*
X161008426Y-138679621D01*
X160924090Y-138548559D01*
X160711890Y-138403569D01*
X160460000Y-138352560D01*
X158460000Y-138352560D01*
X158224683Y-138396838D01*
X158008559Y-138535910D01*
X157863569Y-138748110D01*
X157812560Y-139000000D01*
X157812560Y-141000000D01*
X157856838Y-141235317D01*
X157995910Y-141451441D01*
X158208110Y-141596431D01*
X158460000Y-141647440D01*
X159429605Y-141647440D01*
X157862044Y-143215000D01*
X148314468Y-143215000D01*
X147242469Y-142143001D01*
X150702881Y-142143001D01*
X150994486Y-142084997D01*
X151241696Y-141919816D01*
X151429040Y-141732472D01*
X151616384Y-141919817D01*
X151694783Y-141972201D01*
X151863594Y-142084997D01*
X152155199Y-142143001D01*
X154618999Y-142143001D01*
X154910604Y-142084997D01*
X155157814Y-141919816D01*
X155510526Y-141567105D01*
X155673352Y-141634716D01*
X156323795Y-141635284D01*
X156924943Y-141386894D01*
X157385278Y-140927363D01*
X157634716Y-140326648D01*
X157635284Y-139676205D01*
X157386894Y-139075057D01*
X156927363Y-138614722D01*
X156326648Y-138365284D01*
X155676205Y-138364716D01*
X155075057Y-138613106D01*
X155008426Y-138679621D01*
X154924090Y-138548559D01*
X154711890Y-138403569D01*
X154460000Y-138352560D01*
X152797598Y-138352560D01*
X154958570Y-136191588D01*
X155128736Y-135936916D01*
X155188491Y-135636509D01*
X155188491Y-135571241D01*
X155445341Y-135828540D01*
X155804630Y-135977730D01*
X156193663Y-135978069D01*
X156553212Y-135829507D01*
X156597797Y-135785000D01*
X164040000Y-135785000D01*
X164340407Y-135725245D01*
X164595079Y-135555079D01*
X165764389Y-134385769D01*
X166011887Y-134435000D01*
X166068113Y-134435000D01*
X166617264Y-134325767D01*
X167082811Y-134014698D01*
X167153150Y-133909428D01*
X167176838Y-134035317D01*
X167315910Y-134251441D01*
X167528110Y-134396431D01*
X167780000Y-134447440D01*
X169380000Y-134447440D01*
X169615317Y-134403162D01*
X169715000Y-134339018D01*
X169715000Y-137065855D01*
X168944921Y-137835934D01*
X168774755Y-138090606D01*
X168725344Y-138339010D01*
X168715000Y-138391013D01*
X168715000Y-138509932D01*
X168366648Y-138365284D01*
X167716205Y-138364716D01*
X167115057Y-138613106D01*
X167048426Y-138679621D01*
X166964090Y-138548559D01*
X166751890Y-138403569D01*
X166500000Y-138352560D01*
X164500000Y-138352560D01*
X164264683Y-138396838D01*
X164048559Y-138535910D01*
X163903569Y-138748110D01*
X163852560Y-139000000D01*
X163852560Y-141000000D01*
X163896838Y-141235317D01*
X164035910Y-141451441D01*
X164248110Y-141596431D01*
X164500000Y-141647440D01*
X166500000Y-141647440D01*
X166735317Y-141603162D01*
X166951441Y-141464090D01*
X167048910Y-141321439D01*
X167112637Y-141385278D01*
X167713352Y-141634716D01*
X168363795Y-141635284D01*
X168506261Y-141576418D01*
X170984919Y-144055076D01*
X170984921Y-144055079D01*
X171239594Y-144225245D01*
X171540000Y-144285000D01*
X190617922Y-144285000D01*
X190918329Y-144225245D01*
X191173001Y-144055079D01*
X193999080Y-141229000D01*
X194169246Y-140974328D01*
X194229001Y-140673921D01*
X194229001Y-138381934D01*
X194384564Y-138382070D01*
X194744113Y-138233508D01*
X195019441Y-137958660D01*
X195168631Y-137599371D01*
X195168970Y-137210338D01*
X195020408Y-136850789D01*
X194975901Y-136806204D01*
X194975901Y-114690901D01*
X194942358Y-114522270D01*
X194916146Y-114390494D01*
X194745980Y-114135822D01*
X184865000Y-104254842D01*
X184865000Y-103604128D01*
X185094698Y-103450648D01*
X185350000Y-103068562D01*
X185605302Y-103450648D01*
X186070849Y-103761717D01*
X186620000Y-103870950D01*
X186737433Y-103847591D01*
X189021985Y-106132143D01*
X189021931Y-106193663D01*
X189170493Y-106553212D01*
X189445341Y-106828540D01*
X189804630Y-106977730D01*
X190193663Y-106978069D01*
X190553212Y-106829507D01*
X190828540Y-106554659D01*
X190977730Y-106195370D01*
X190978069Y-105806337D01*
X190829507Y-105446788D01*
X190554659Y-105171460D01*
X190195370Y-105022270D01*
X190132373Y-105022215D01*
X187970569Y-102860411D01*
X188055000Y-102435950D01*
X188055000Y-101564050D01*
X187945767Y-101014899D01*
X187634698Y-100549352D01*
X187169151Y-100238283D01*
X186620000Y-100129050D01*
X186070849Y-100238283D01*
X185605302Y-100549352D01*
X185350000Y-100931438D01*
X185094698Y-100549352D01*
X184629151Y-100238283D01*
X184080000Y-100129050D01*
X183530849Y-100238283D01*
X183065302Y-100549352D01*
X182810000Y-100931438D01*
X182554698Y-100549352D01*
X182089151Y-100238283D01*
X181540000Y-100129050D01*
X180990849Y-100238283D01*
X180525302Y-100549352D01*
X180270000Y-100931438D01*
X180014698Y-100549352D01*
X179549151Y-100238283D01*
X179000000Y-100129050D01*
X178450849Y-100238283D01*
X177985302Y-100549352D01*
X177730000Y-100931438D01*
X177474698Y-100549352D01*
X177009151Y-100238283D01*
X176460000Y-100129050D01*
X175910849Y-100238283D01*
X175445302Y-100549352D01*
X175190000Y-100931438D01*
X174934698Y-100549352D01*
X174469151Y-100238283D01*
X173920000Y-100129050D01*
X173370849Y-100238283D01*
X172905302Y-100549352D01*
X172650000Y-100931438D01*
X172394698Y-100549352D01*
X171929151Y-100238283D01*
X171380000Y-100129050D01*
X170830849Y-100238283D01*
X170365302Y-100549352D01*
X170110000Y-100931438D01*
X169854698Y-100549352D01*
X169389151Y-100238283D01*
X168840000Y-100129050D01*
X168290849Y-100238283D01*
X167825302Y-100549352D01*
X167570000Y-100931438D01*
X167314698Y-100549352D01*
X166849151Y-100238283D01*
X166300000Y-100129050D01*
X165750849Y-100238283D01*
X165285302Y-100549352D01*
X164974233Y-101014899D01*
X164865000Y-101564050D01*
X164865000Y-102435950D01*
X164974233Y-102985101D01*
X165285302Y-103450648D01*
X165750849Y-103761717D01*
X166300000Y-103870950D01*
X166849151Y-103761717D01*
X167314698Y-103450648D01*
X167570000Y-103068562D01*
X167825302Y-103450648D01*
X168290849Y-103761717D01*
X168840000Y-103870950D01*
X169389151Y-103761717D01*
X169854698Y-103450648D01*
X170110000Y-103068562D01*
X170365302Y-103450648D01*
X170830849Y-103761717D01*
X171380000Y-103870950D01*
X171929151Y-103761717D01*
X172394698Y-103450648D01*
X172650000Y-103068562D01*
X172905302Y-103450648D01*
X173370849Y-103761717D01*
X173920000Y-103870950D01*
X174469151Y-103761717D01*
X174934698Y-103450648D01*
X175190000Y-103068562D01*
X175445302Y-103450648D01*
X175910849Y-103761717D01*
X176460000Y-103870950D01*
X177009151Y-103761717D01*
X177474698Y-103450648D01*
X177730000Y-103068562D01*
X177985302Y-103450648D01*
X178450849Y-103761717D01*
X179000000Y-103870950D01*
X179300933Y-103811091D01*
X180596822Y-105106980D01*
X174889555Y-105106979D01*
X174872549Y-105089973D01*
X174617877Y-104919807D01*
X174317470Y-104860052D01*
X152354953Y-104860052D01*
X152354948Y-104860051D01*
X152054542Y-104919807D01*
X151799869Y-105089973D01*
X151285000Y-105604842D01*
X151285000Y-101163694D01*
X151365226Y-101163694D01*
X151613538Y-101764655D01*
X152072927Y-102224846D01*
X152673453Y-102474206D01*
X153323694Y-102474774D01*
X153465870Y-102416028D01*
X154104919Y-103055076D01*
X154104921Y-103055079D01*
X154284515Y-103175079D01*
X154359594Y-103225245D01*
X154660000Y-103285001D01*
X154660005Y-103285000D01*
X159414213Y-103285000D01*
X159714620Y-103225245D01*
X159969292Y-103055079D01*
X160555079Y-102469292D01*
X160725245Y-102214619D01*
X160778389Y-101947449D01*
X160924943Y-101886894D01*
X161385278Y-101427363D01*
X161634716Y-100826648D01*
X161635284Y-100176205D01*
X161386894Y-99575057D01*
X160927363Y-99114722D01*
X160326648Y-98865284D01*
X159676205Y-98864716D01*
X159075057Y-99113106D01*
X159012803Y-99175251D01*
X158998327Y-99140302D01*
X158819699Y-98961673D01*
X158586310Y-98865000D01*
X157745750Y-98865000D01*
X157587000Y-99023750D01*
X157587000Y-100373000D01*
X157607000Y-100373000D01*
X157607000Y-100627000D01*
X157587000Y-100627000D01*
X157587000Y-100647000D01*
X157333000Y-100647000D01*
X157333000Y-100627000D01*
X155983750Y-100627000D01*
X155825000Y-100785750D01*
X155825000Y-101626309D01*
X155861737Y-101715000D01*
X154985157Y-101715000D01*
X154576258Y-101306101D01*
X154634206Y-101166547D01*
X154634774Y-100516306D01*
X154386462Y-99915345D01*
X153927073Y-99455154D01*
X153730889Y-99373691D01*
X155825000Y-99373691D01*
X155825000Y-100214250D01*
X155983750Y-100373000D01*
X157333000Y-100373000D01*
X157333000Y-99023750D01*
X157174250Y-98865000D01*
X156333690Y-98865000D01*
X156100301Y-98961673D01*
X155921673Y-99140302D01*
X155825000Y-99373691D01*
X153730889Y-99373691D01*
X153326547Y-99205794D01*
X152676306Y-99205226D01*
X152075345Y-99453538D01*
X151615154Y-99912927D01*
X151365794Y-100513453D01*
X151365226Y-101163694D01*
X151285000Y-101163694D01*
X151285000Y-99825158D01*
X153659157Y-97451001D01*
X160241999Y-97451001D01*
X160542406Y-97391246D01*
X160728950Y-97266601D01*
X172153566Y-97266601D01*
X172358081Y-97761565D01*
X172736443Y-98140588D01*
X173231049Y-98345966D01*
X173766601Y-98346434D01*
X174261565Y-98141919D01*
X174640588Y-97763557D01*
X174845966Y-97268951D01*
X174845968Y-97266601D01*
X177233566Y-97266601D01*
X177438081Y-97761565D01*
X177816443Y-98140588D01*
X178311049Y-98345966D01*
X178846601Y-98346434D01*
X179341565Y-98141919D01*
X179720588Y-97763557D01*
X179925966Y-97268951D01*
X179926434Y-96733399D01*
X179721919Y-96238435D01*
X179343557Y-95859412D01*
X178848951Y-95654034D01*
X178313399Y-95653566D01*
X177818435Y-95858081D01*
X177439412Y-96236443D01*
X177234034Y-96731049D01*
X177233566Y-97266601D01*
X174845968Y-97266601D01*
X174846434Y-96733399D01*
X174641919Y-96238435D01*
X174263557Y-95859412D01*
X173768951Y-95654034D01*
X173233399Y-95653566D01*
X172738435Y-95858081D01*
X172359412Y-96236443D01*
X172154034Y-96731049D01*
X172153566Y-97266601D01*
X160728950Y-97266601D01*
X160797078Y-97221080D01*
X161498901Y-96519257D01*
X161905083Y-96790660D01*
X162439692Y-96897000D01*
X162800308Y-96897000D01*
X163334917Y-96790660D01*
X163788136Y-96487828D01*
X164090968Y-96034609D01*
X164197308Y-95500000D01*
X164090968Y-94965391D01*
X163788136Y-94512172D01*
X163334917Y-94209340D01*
X162800308Y-94103000D01*
X162439692Y-94103000D01*
X161905083Y-94209340D01*
X161451864Y-94512172D01*
X161302288Y-94736028D01*
X161107594Y-94774755D01*
X161107592Y-94774756D01*
X161107593Y-94774756D01*
X160852921Y-94944921D01*
X159916841Y-95881001D01*
X156559440Y-95881001D01*
X156559440Y-94738000D01*
X156515162Y-94502683D01*
X156376090Y-94286559D01*
X156163890Y-94141569D01*
X155912000Y-94090560D01*
X154088000Y-94090560D01*
X153852683Y-94134838D01*
X153658165Y-94260007D01*
X152039078Y-92640920D01*
X151784406Y-92470754D01*
X151483999Y-92410999D01*
X143204001Y-92410999D01*
X142903594Y-92470754D01*
X142648922Y-92640920D01*
X141937617Y-93352225D01*
X141006347Y-92965528D01*
X139798950Y-92964474D01*
X138683057Y-93425552D01*
X137828553Y-94278566D01*
X137365528Y-95393653D01*
X137364474Y-96601050D01*
X133210000Y-96601050D01*
X133210000Y-94569931D01*
X133397167Y-93628977D01*
X133890561Y-92890561D01*
X134628977Y-92397167D01*
X135569931Y-92210000D01*
X192930069Y-92210000D01*
X193871023Y-92397167D01*
G36*
X181627000Y-133493000D02*
X181647000Y-133493000D01*
X181647000Y-133747000D01*
X181627000Y-133747000D01*
X181627000Y-133767000D01*
X181373000Y-133767000D01*
X181373000Y-133747000D01*
X181353000Y-133747000D01*
X181353000Y-133493000D01*
X181373000Y-133493000D01*
X181373000Y-133473000D01*
X181627000Y-133473000D01*
X181627000Y-133493000D01*
X181627000Y-133493000D01*
G37*
X181627000Y-133493000D02*
X181647000Y-133493000D01*
X181647000Y-133747000D01*
X181627000Y-133747000D01*
X181627000Y-133767000D01*
X181373000Y-133767000D01*
X181373000Y-133747000D01*
X181353000Y-133747000D01*
X181353000Y-133493000D01*
X181373000Y-133493000D01*
X181373000Y-133473000D01*
X181627000Y-133473000D01*
X181627000Y-133493000D01*
G36*
X183804630Y-113977730D02*
X184193663Y-113978069D01*
X184499010Y-113851903D01*
X184499010Y-116537138D01*
X184040000Y-116445836D01*
X183505391Y-116552176D01*
X183052172Y-116855008D01*
X182760702Y-117291222D01*
X182742059Y-117228059D01*
X182398026Y-116802370D01*
X181917277Y-116540740D01*
X181843070Y-116525780D01*
X181627000Y-116648280D01*
X181627000Y-118253000D01*
X181647000Y-118253000D01*
X181647000Y-118507000D01*
X181627000Y-118507000D01*
X181627000Y-120111720D01*
X181843070Y-120234220D01*
X181917277Y-120219260D01*
X182398026Y-119957630D01*
X182742059Y-119531941D01*
X182760702Y-119468778D01*
X183052172Y-119904992D01*
X183505391Y-120207824D01*
X184040000Y-120314164D01*
X184499010Y-120222862D01*
X184499010Y-128799077D01*
X184558765Y-129099484D01*
X184728931Y-129354156D01*
X187272351Y-131897576D01*
X187114609Y-131792176D01*
X186580000Y-131685836D01*
X186045391Y-131792176D01*
X185662264Y-132048174D01*
X180865010Y-127250920D01*
X180865010Y-120100778D01*
X181082723Y-120219260D01*
X181156930Y-120234220D01*
X181373000Y-120111720D01*
X181373000Y-118507000D01*
X181353000Y-118507000D01*
X181353000Y-118253000D01*
X181373000Y-118253000D01*
X181373000Y-116648280D01*
X181156930Y-116525780D01*
X181082723Y-116540740D01*
X180656977Y-116772437D01*
X180641825Y-116749761D01*
X178177064Y-114285000D01*
X181314687Y-114285000D01*
X181623462Y-114439387D01*
X181670493Y-114553212D01*
X181945341Y-114828540D01*
X182304630Y-114977730D01*
X182693663Y-114978069D01*
X183053212Y-114829507D01*
X183328540Y-114554659D01*
X183477730Y-114195370D01*
X183478038Y-113842117D01*
X183804630Y-113977730D01*
X183804630Y-113977730D01*
G37*
X183804630Y-113977730D02*
X184193663Y-113978069D01*
X184499010Y-113851903D01*
X184499010Y-116537138D01*
X184040000Y-116445836D01*
X183505391Y-116552176D01*
X183052172Y-116855008D01*
X182760702Y-117291222D01*
X182742059Y-117228059D01*
X182398026Y-116802370D01*
X181917277Y-116540740D01*
X181843070Y-116525780D01*
X181627000Y-116648280D01*
X181627000Y-118253000D01*
X181647000Y-118253000D01*
X181647000Y-118507000D01*
X181627000Y-118507000D01*
X181627000Y-120111720D01*
X181843070Y-120234220D01*
X181917277Y-120219260D01*
X182398026Y-119957630D01*
X182742059Y-119531941D01*
X182760702Y-119468778D01*
X183052172Y-119904992D01*
X183505391Y-120207824D01*
X184040000Y-120314164D01*
X184499010Y-120222862D01*
X184499010Y-128799077D01*
X184558765Y-129099484D01*
X184728931Y-129354156D01*
X187272351Y-131897576D01*
X187114609Y-131792176D01*
X186580000Y-131685836D01*
X186045391Y-131792176D01*
X185662264Y-132048174D01*
X180865010Y-127250920D01*
X180865010Y-120100778D01*
X181082723Y-120219260D01*
X181156930Y-120234220D01*
X181373000Y-120111720D01*
X181373000Y-118507000D01*
X181353000Y-118507000D01*
X181353000Y-118253000D01*
X181373000Y-118253000D01*
X181373000Y-116648280D01*
X181156930Y-116525780D01*
X181082723Y-116540740D01*
X180656977Y-116772437D01*
X180641825Y-116749761D01*
X178177064Y-114285000D01*
X181314687Y-114285000D01*
X181623462Y-114439387D01*
X181670493Y-114553212D01*
X181945341Y-114828540D01*
X182304630Y-114977730D01*
X182693663Y-114978069D01*
X183053212Y-114829507D01*
X183328540Y-114554659D01*
X183477730Y-114195370D01*
X183478038Y-113842117D01*
X183804630Y-113977730D01*
G36*
X163274755Y-107699593D02*
X163240262Y-107873000D01*
X163215000Y-108000000D01*
X163215000Y-110047202D01*
X163274755Y-110347609D01*
X163444921Y-110602281D01*
X168729816Y-115887176D01*
X168619720Y-115997081D01*
X168616058Y-116005900D01*
X167555079Y-114944921D01*
X167300407Y-114774755D01*
X167000000Y-114715000D01*
X165098123Y-114715000D01*
X165054659Y-114671460D01*
X164695370Y-114522270D01*
X164306337Y-114521931D01*
X163946788Y-114670493D01*
X163671460Y-114945341D01*
X163522270Y-115304630D01*
X163521931Y-115693663D01*
X163670493Y-116053212D01*
X163945341Y-116328540D01*
X164304630Y-116477730D01*
X164693663Y-116478069D01*
X165053212Y-116329507D01*
X165097797Y-116285000D01*
X166674842Y-116285000D01*
X167795000Y-117405158D01*
X167795000Y-117441933D01*
X167500356Y-117112478D01*
X167008731Y-116875954D01*
X167003070Y-116875780D01*
X166787000Y-116998280D01*
X166787000Y-118253000D01*
X166807000Y-118253000D01*
X166807000Y-118507000D01*
X166787000Y-118507000D01*
X166787000Y-119761720D01*
X167003070Y-119884220D01*
X167008731Y-119884046D01*
X167500356Y-119647522D01*
X167795000Y-119318067D01*
X167795000Y-122563640D01*
X167695370Y-122522270D01*
X167306337Y-122521931D01*
X166946788Y-122670493D01*
X166671460Y-122945341D01*
X166522270Y-123304630D01*
X166521931Y-123693663D01*
X166670493Y-124053212D01*
X166715000Y-124097797D01*
X166715000Y-124433632D01*
X166660000Y-124422692D01*
X166125391Y-124529032D01*
X165672172Y-124831864D01*
X165390000Y-125254163D01*
X165107828Y-124831864D01*
X164654609Y-124529032D01*
X164120000Y-124422692D01*
X163585391Y-124529032D01*
X163132172Y-124831864D01*
X162850000Y-125254163D01*
X162567828Y-124831864D01*
X162343972Y-124682288D01*
X162305245Y-124487594D01*
X162135079Y-124232921D01*
X160785000Y-122882842D01*
X160785000Y-121118191D01*
X160969069Y-120934122D01*
X161139235Y-120679450D01*
X161198990Y-120379043D01*
X161198990Y-119868516D01*
X161231269Y-119884046D01*
X161236930Y-119884220D01*
X161453000Y-119761720D01*
X161453000Y-118507000D01*
X161707000Y-118507000D01*
X161707000Y-119761720D01*
X161923070Y-119884220D01*
X161928731Y-119884046D01*
X162420356Y-119647522D01*
X162784045Y-119240865D01*
X162850000Y-119052606D01*
X162915955Y-119240865D01*
X163279644Y-119647522D01*
X163771269Y-119884046D01*
X163776930Y-119884220D01*
X163993000Y-119761720D01*
X163993000Y-118507000D01*
X164247000Y-118507000D01*
X164247000Y-119761720D01*
X164463070Y-119884220D01*
X164468731Y-119884046D01*
X164960356Y-119647522D01*
X165324045Y-119240865D01*
X165390000Y-119052606D01*
X165455955Y-119240865D01*
X165819644Y-119647522D01*
X166311269Y-119884046D01*
X166316930Y-119884220D01*
X166533000Y-119761720D01*
X166533000Y-118507000D01*
X165420707Y-118507000D01*
X165390000Y-118553332D01*
X165359293Y-118507000D01*
X164247000Y-118507000D01*
X163993000Y-118507000D01*
X162880707Y-118507000D01*
X162850000Y-118553332D01*
X162819293Y-118507000D01*
X161707000Y-118507000D01*
X161453000Y-118507000D01*
X161433000Y-118507000D01*
X161433000Y-118253000D01*
X161453000Y-118253000D01*
X161453000Y-116998280D01*
X161707000Y-116998280D01*
X161707000Y-118253000D01*
X162819293Y-118253000D01*
X162850000Y-118206668D01*
X162880707Y-118253000D01*
X163993000Y-118253000D01*
X163993000Y-116998280D01*
X164247000Y-116998280D01*
X164247000Y-118253000D01*
X165359293Y-118253000D01*
X165390000Y-118206668D01*
X165420707Y-118253000D01*
X166533000Y-118253000D01*
X166533000Y-116998280D01*
X166316930Y-116875780D01*
X166311269Y-116875954D01*
X165819644Y-117112478D01*
X165455955Y-117519135D01*
X165390000Y-117707394D01*
X165324045Y-117519135D01*
X164960356Y-117112478D01*
X164468731Y-116875954D01*
X164463070Y-116875780D01*
X164247000Y-116998280D01*
X163993000Y-116998280D01*
X163776930Y-116875780D01*
X163771269Y-116875954D01*
X163279644Y-117112478D01*
X162915955Y-117519135D01*
X162850000Y-117707394D01*
X162784045Y-117519135D01*
X162420356Y-117112478D01*
X161928731Y-116875954D01*
X161923070Y-116875780D01*
X161707000Y-116998280D01*
X161453000Y-116998280D01*
X161236930Y-116875780D01*
X161231269Y-116875954D01*
X161198990Y-116891484D01*
X161198990Y-110911168D01*
X162132143Y-109978015D01*
X162193663Y-109978069D01*
X162553212Y-109829507D01*
X162828540Y-109554659D01*
X162977730Y-109195370D01*
X162978069Y-108806337D01*
X162829507Y-108446788D01*
X162554659Y-108171460D01*
X162477779Y-108139536D01*
X162478069Y-107806337D01*
X162367222Y-107538066D01*
X163382684Y-107538066D01*
X163274755Y-107699593D01*
X163274755Y-107699593D01*
G37*
X163274755Y-107699593D02*
X163240262Y-107873000D01*
X163215000Y-108000000D01*
X163215000Y-110047202D01*
X163274755Y-110347609D01*
X163444921Y-110602281D01*
X168729816Y-115887176D01*
X168619720Y-115997081D01*
X168616058Y-116005900D01*
X167555079Y-114944921D01*
X167300407Y-114774755D01*
X167000000Y-114715000D01*
X165098123Y-114715000D01*
X165054659Y-114671460D01*
X164695370Y-114522270D01*
X164306337Y-114521931D01*
X163946788Y-114670493D01*
X163671460Y-114945341D01*
X163522270Y-115304630D01*
X163521931Y-115693663D01*
X163670493Y-116053212D01*
X163945341Y-116328540D01*
X164304630Y-116477730D01*
X164693663Y-116478069D01*
X165053212Y-116329507D01*
X165097797Y-116285000D01*
X166674842Y-116285000D01*
X167795000Y-117405158D01*
X167795000Y-117441933D01*
X167500356Y-117112478D01*
X167008731Y-116875954D01*
X167003070Y-116875780D01*
X166787000Y-116998280D01*
X166787000Y-118253000D01*
X166807000Y-118253000D01*
X166807000Y-118507000D01*
X166787000Y-118507000D01*
X166787000Y-119761720D01*
X167003070Y-119884220D01*
X167008731Y-119884046D01*
X167500356Y-119647522D01*
X167795000Y-119318067D01*
X167795000Y-122563640D01*
X167695370Y-122522270D01*
X167306337Y-122521931D01*
X166946788Y-122670493D01*
X166671460Y-122945341D01*
X166522270Y-123304630D01*
X166521931Y-123693663D01*
X166670493Y-124053212D01*
X166715000Y-124097797D01*
X166715000Y-124433632D01*
X166660000Y-124422692D01*
X166125391Y-124529032D01*
X165672172Y-124831864D01*
X165390000Y-125254163D01*
X165107828Y-124831864D01*
X164654609Y-124529032D01*
X164120000Y-124422692D01*
X163585391Y-124529032D01*
X163132172Y-124831864D01*
X162850000Y-125254163D01*
X162567828Y-124831864D01*
X162343972Y-124682288D01*
X162305245Y-124487594D01*
X162135079Y-124232921D01*
X160785000Y-122882842D01*
X160785000Y-121118191D01*
X160969069Y-120934122D01*
X161139235Y-120679450D01*
X161198990Y-120379043D01*
X161198990Y-119868516D01*
X161231269Y-119884046D01*
X161236930Y-119884220D01*
X161453000Y-119761720D01*
X161453000Y-118507000D01*
X161707000Y-118507000D01*
X161707000Y-119761720D01*
X161923070Y-119884220D01*
X161928731Y-119884046D01*
X162420356Y-119647522D01*
X162784045Y-119240865D01*
X162850000Y-119052606D01*
X162915955Y-119240865D01*
X163279644Y-119647522D01*
X163771269Y-119884046D01*
X163776930Y-119884220D01*
X163993000Y-119761720D01*
X163993000Y-118507000D01*
X164247000Y-118507000D01*
X164247000Y-119761720D01*
X164463070Y-119884220D01*
X164468731Y-119884046D01*
X164960356Y-119647522D01*
X165324045Y-119240865D01*
X165390000Y-119052606D01*
X165455955Y-119240865D01*
X165819644Y-119647522D01*
X166311269Y-119884046D01*
X166316930Y-119884220D01*
X166533000Y-119761720D01*
X166533000Y-118507000D01*
X165420707Y-118507000D01*
X165390000Y-118553332D01*
X165359293Y-118507000D01*
X164247000Y-118507000D01*
X163993000Y-118507000D01*
X162880707Y-118507000D01*
X162850000Y-118553332D01*
X162819293Y-118507000D01*
X161707000Y-118507000D01*
X161453000Y-118507000D01*
X161433000Y-118507000D01*
X161433000Y-118253000D01*
X161453000Y-118253000D01*
X161453000Y-116998280D01*
X161707000Y-116998280D01*
X161707000Y-118253000D01*
X162819293Y-118253000D01*
X162850000Y-118206668D01*
X162880707Y-118253000D01*
X163993000Y-118253000D01*
X163993000Y-116998280D01*
X164247000Y-116998280D01*
X164247000Y-118253000D01*
X165359293Y-118253000D01*
X165390000Y-118206668D01*
X165420707Y-118253000D01*
X166533000Y-118253000D01*
X166533000Y-116998280D01*
X166316930Y-116875780D01*
X166311269Y-116875954D01*
X165819644Y-117112478D01*
X165455955Y-117519135D01*
X165390000Y-117707394D01*
X165324045Y-117519135D01*
X164960356Y-117112478D01*
X164468731Y-116875954D01*
X164463070Y-116875780D01*
X164247000Y-116998280D01*
X163993000Y-116998280D01*
X163776930Y-116875780D01*
X163771269Y-116875954D01*
X163279644Y-117112478D01*
X162915955Y-117519135D01*
X162850000Y-117707394D01*
X162784045Y-117519135D01*
X162420356Y-117112478D01*
X161928731Y-116875954D01*
X161923070Y-116875780D01*
X161707000Y-116998280D01*
X161453000Y-116998280D01*
X161236930Y-116875780D01*
X161231269Y-116875954D01*
X161198990Y-116891484D01*
X161198990Y-110911168D01*
X162132143Y-109978015D01*
X162193663Y-109978069D01*
X162553212Y-109829507D01*
X162828540Y-109554659D01*
X162977730Y-109195370D01*
X162978069Y-108806337D01*
X162829507Y-108446788D01*
X162554659Y-108171460D01*
X162477779Y-108139536D01*
X162478069Y-107806337D01*
X162367222Y-107538066D01*
X163382684Y-107538066D01*
X163274755Y-107699593D01*
G36*
X159628990Y-116991544D02*
X159388731Y-116875954D01*
X159383070Y-116875780D01*
X159167000Y-116998280D01*
X159167000Y-118253000D01*
X159187000Y-118253000D01*
X159187000Y-118507000D01*
X159167000Y-118507000D01*
X159167000Y-119761720D01*
X159383070Y-119884220D01*
X159388731Y-119884046D01*
X159628990Y-119768456D01*
X159628990Y-120053885D01*
X159444921Y-120237954D01*
X159274755Y-120492626D01*
X159231121Y-120711990D01*
X159215000Y-120793033D01*
X159215000Y-123208000D01*
X159274755Y-123508407D01*
X159444921Y-123763079D01*
X160560743Y-124878901D01*
X160310000Y-125254163D01*
X160027828Y-124831864D01*
X159803973Y-124682289D01*
X159765245Y-124487594D01*
X159595079Y-124232921D01*
X157339919Y-121977761D01*
X157693663Y-121978069D01*
X158053212Y-121829507D01*
X158328540Y-121554659D01*
X158477730Y-121195370D01*
X158477806Y-121108148D01*
X158599235Y-120926416D01*
X158658990Y-120626010D01*
X158658990Y-119868516D01*
X158691269Y-119884046D01*
X158696930Y-119884220D01*
X158913000Y-119761720D01*
X158913000Y-118507000D01*
X158893000Y-118507000D01*
X158893000Y-118253000D01*
X158913000Y-118253000D01*
X158913000Y-116998280D01*
X158696930Y-116875780D01*
X158691269Y-116875954D01*
X158658990Y-116891484D01*
X158658990Y-111951168D01*
X159628990Y-110981168D01*
X159628990Y-116991544D01*
X159628990Y-116991544D01*
G37*
X159628990Y-116991544D02*
X159388731Y-116875954D01*
X159383070Y-116875780D01*
X159167000Y-116998280D01*
X159167000Y-118253000D01*
X159187000Y-118253000D01*
X159187000Y-118507000D01*
X159167000Y-118507000D01*
X159167000Y-119761720D01*
X159383070Y-119884220D01*
X159388731Y-119884046D01*
X159628990Y-119768456D01*
X159628990Y-120053885D01*
X159444921Y-120237954D01*
X159274755Y-120492626D01*
X159231121Y-120711990D01*
X159215000Y-120793033D01*
X159215000Y-123208000D01*
X159274755Y-123508407D01*
X159444921Y-123763079D01*
X160560743Y-124878901D01*
X160310000Y-125254163D01*
X160027828Y-124831864D01*
X159803973Y-124682289D01*
X159765245Y-124487594D01*
X159595079Y-124232921D01*
X157339919Y-121977761D01*
X157693663Y-121978069D01*
X158053212Y-121829507D01*
X158328540Y-121554659D01*
X158477730Y-121195370D01*
X158477806Y-121108148D01*
X158599235Y-120926416D01*
X158658990Y-120626010D01*
X158658990Y-119868516D01*
X158691269Y-119884046D01*
X158696930Y-119884220D01*
X158913000Y-119761720D01*
X158913000Y-118507000D01*
X158893000Y-118507000D01*
X158893000Y-118253000D01*
X158913000Y-118253000D01*
X158913000Y-116998280D01*
X158696930Y-116875780D01*
X158691269Y-116875954D01*
X158658990Y-116891484D01*
X158658990Y-111951168D01*
X159628990Y-110981168D01*
X159628990Y-116991544D01*
G36*
X160522270Y-107804630D02*
X160522215Y-107867628D01*
X157318911Y-111070931D01*
X157148745Y-111325603D01*
X157124640Y-111446788D01*
X157088990Y-111626010D01*
X157088990Y-116991544D01*
X156848731Y-116875954D01*
X156843070Y-116875780D01*
X156627000Y-116998280D01*
X156627000Y-118253000D01*
X156647000Y-118253000D01*
X156647000Y-118507000D01*
X156627000Y-118507000D01*
X156627000Y-119761720D01*
X156843070Y-119884220D01*
X156848731Y-119884046D01*
X157088990Y-119768456D01*
X157088990Y-120111737D01*
X156946788Y-120170493D01*
X156671460Y-120445341D01*
X156522270Y-120804630D01*
X156521931Y-121193663D01*
X156670493Y-121553212D01*
X156851820Y-121734856D01*
X156752000Y-121715000D01*
X156598123Y-121715000D01*
X156554659Y-121671460D01*
X156195370Y-121522270D01*
X155806337Y-121521931D01*
X155446788Y-121670493D01*
X155188491Y-121928340D01*
X155188491Y-118934125D01*
X155295955Y-119240865D01*
X155659644Y-119647522D01*
X156151269Y-119884046D01*
X156156930Y-119884220D01*
X156373000Y-119761720D01*
X156373000Y-118507000D01*
X156353000Y-118507000D01*
X156353000Y-118253000D01*
X156373000Y-118253000D01*
X156373000Y-116998280D01*
X156156930Y-116875780D01*
X156151269Y-116875954D01*
X155659644Y-117112478D01*
X155295955Y-117519135D01*
X155188491Y-117825875D01*
X155188491Y-112421667D01*
X160072092Y-107538066D01*
X160632957Y-107538066D01*
X160522270Y-107804630D01*
X160522270Y-107804630D01*
G37*
X160522270Y-107804630D02*
X160522215Y-107867628D01*
X157318911Y-111070931D01*
X157148745Y-111325603D01*
X157124640Y-111446788D01*
X157088990Y-111626010D01*
X157088990Y-116991544D01*
X156848731Y-116875954D01*
X156843070Y-116875780D01*
X156627000Y-116998280D01*
X156627000Y-118253000D01*
X156647000Y-118253000D01*
X156647000Y-118507000D01*
X156627000Y-118507000D01*
X156627000Y-119761720D01*
X156843070Y-119884220D01*
X156848731Y-119884046D01*
X157088990Y-119768456D01*
X157088990Y-120111737D01*
X156946788Y-120170493D01*
X156671460Y-120445341D01*
X156522270Y-120804630D01*
X156521931Y-121193663D01*
X156670493Y-121553212D01*
X156851820Y-121734856D01*
X156752000Y-121715000D01*
X156598123Y-121715000D01*
X156554659Y-121671460D01*
X156195370Y-121522270D01*
X155806337Y-121521931D01*
X155446788Y-121670493D01*
X155188491Y-121928340D01*
X155188491Y-118934125D01*
X155295955Y-119240865D01*
X155659644Y-119647522D01*
X156151269Y-119884046D01*
X156156930Y-119884220D01*
X156373000Y-119761720D01*
X156373000Y-118507000D01*
X156353000Y-118507000D01*
X156353000Y-118253000D01*
X156373000Y-118253000D01*
X156373000Y-116998280D01*
X156156930Y-116875780D01*
X156151269Y-116875954D01*
X155659644Y-117112478D01*
X155295955Y-117519135D01*
X155188491Y-117825875D01*
X155188491Y-112421667D01*
X160072092Y-107538066D01*
X160632957Y-107538066D01*
X160522270Y-107804630D01*
G36*
X176587000Y-109493000D02*
X176607000Y-109493000D01*
X176607000Y-109747000D01*
X176587000Y-109747000D01*
X176587000Y-109767000D01*
X176333000Y-109767000D01*
X176333000Y-109747000D01*
X176313000Y-109747000D01*
X176313000Y-109493000D01*
X176333000Y-109493000D01*
X176333000Y-109473000D01*
X176587000Y-109473000D01*
X176587000Y-109493000D01*
X176587000Y-109493000D01*
G37*
X176587000Y-109493000D02*
X176607000Y-109493000D01*
X176607000Y-109747000D01*
X176587000Y-109747000D01*
X176587000Y-109767000D01*
X176333000Y-109767000D01*
X176333000Y-109747000D01*
X176313000Y-109747000D01*
X176313000Y-109493000D01*
X176333000Y-109493000D01*
X176333000Y-109473000D01*
X176587000Y-109473000D01*
X176587000Y-109493000D01*
M02*
