M48
;DRILL file {KiCad 4.0.5-e0-6337~49~ubuntu16.04.1} date Mon Jan 30 13:13:08 2017
;FORMAT={-:-/ absolute / inch / decimal}
FMAT,2
INCH,TZ
T1C0.013
T2C0.028
T3C0.030
T4C0.031
T5C0.039
T6C0.040
T7C0.043
%
G90
G05
M72
T1
X5.5906Y-4.4882
X5.8661Y-4.2126
X5.8661Y-4.7244
X6.1417Y-4.8228
X6.1417Y-5.315
X6.2008Y-4.7638
X6.3583Y-4.252
X6.378Y-4.2913
X6.4764Y-4.5472
X6.5945Y-4.8622
X6.6339Y-4.4488
X6.6644Y-4.4221
X6.6712Y-4.5887
X6.6732Y-4.7835
X6.6929Y-4.4488
X6.752Y-4.7244
X6.7735Y-4.5965
X6.7815Y-5.3051
X6.8121Y-4.6839
X6.8307Y-4.2323
X6.8504Y-4.6787
X6.8898Y-4.4488
X6.8983Y-4.489
X6.9291Y-4.4685
X6.9488Y-4.5276
X6.9696Y-4.9202
X6.9845Y-4.5616
X7.0484Y-5.0383
X7.185Y-4.4882
X7.2244Y-4.4094
X7.2343Y-5.0787
X7.2441Y-4.4488
X7.2936Y-3.9655
X7.313Y-3.8583
X7.3622Y-4.1634
X7.4803Y-4.1732
X7.5197Y-5.4449
X7.5394Y-4.626
X7.5591Y-5.3543
X7.5787Y-5.4231
X7.6453Y-5.4096
X7.6747Y-5.0427
T2
X5.3544Y-4.9015
X5.7544Y-4.9015
T3
X6.1024Y-3.7598
X6.1614Y-4.6606
X6.1614Y-4.9606
X6.2614Y-4.6606
X6.2614Y-4.9606
X6.3614Y-4.6606
X6.3614Y-4.9606
X6.4024Y-3.7598
X6.4614Y-4.6606
X6.4614Y-4.9606
X6.5614Y-4.6606
X6.5614Y-4.9606
X6.8307Y-3.8189
X7.0307Y-3.8189
T4
X5.374Y-4.626
X5.4528Y-4.626
X5.6496Y-4.626
X5.7283Y-4.626
X6.137Y-5.2362
X6.237Y-5.2362
X6.337Y-5.2362
X6.437Y-5.2362
X6.537Y-5.2362
X6.5472Y-4.0157
X6.5472Y-4.3157
X6.637Y-5.2362
X6.6472Y-4.0157
X6.6472Y-4.3157
X6.7472Y-4.0157
X6.7472Y-4.3157
X6.8472Y-4.0157
X6.8472Y-4.3157
X6.9457Y-4.6606
X6.9457Y-5.2606
X6.9472Y-4.0157
X6.9472Y-4.3157
X7.0457Y-4.6606
X7.0457Y-5.2606
X7.0472Y-4.0157
X7.0472Y-4.3157
X7.1457Y-4.6606
X7.1457Y-5.2606
X7.1472Y-4.0157
X7.1472Y-4.3157
X7.2457Y-4.6606
X7.2457Y-5.2606
X7.2472Y-4.0157
X7.2472Y-4.3157
X7.3457Y-4.6606
X7.3457Y-5.2606
X7.3472Y-4.0157
X7.3472Y-4.3157
T5
X5.4512Y-4.252
X5.5512Y-4.252
X5.6512Y-4.252
X5.8071Y-5.5118
X5.9071Y-5.5118
X6.0236Y-3.9701
X6.0236Y-4.3701
X6.0417Y-5.5118
X6.1417Y-5.5118
X6.1992Y-3.9567
X6.278Y-5.5118
X6.2992Y-3.9567
X6.378Y-5.5118
X6.5157Y-5.5118
X6.6157Y-5.5118
X6.7504Y-5.5118
X6.8504Y-5.5118
X6.9882Y-5.5118
X7.0882Y-5.5118
X7.2244Y-5.5118
X7.3244Y-5.5118
X7.4606Y-5.5118
X7.5606Y-5.5118
T7
X5.4134Y-5.2559
X5.4134Y-5.5118
X5.5906Y-5.2559
X5.5906Y-5.5118
T6
X5.5276Y-3.7496G85X5.5276Y-3.8094
G05
X5.5878Y-3.9795G85X5.6476Y-3.9795
G05
X5.7677Y-3.7496G85X5.7677Y-3.8094
G05
T0
M30
