G04 #@! TF.FileFunction,Soldermask,Bot*
%FSLAX46Y46*%
G04 Gerber Fmt 4.6, Leading zero omitted, Abs format (unit mm)*
G04 Created by KiCad (PCBNEW 4.0.5-e0-6337~49~ubuntu16.04.1) date Mon Jan 30 13:11:42 2017*
%MOMM*%
%LPD*%
G01*
G04 APERTURE LIST*
%ADD10C,0.100000*%
%ADD11O,1.924000X2.924000*%
%ADD12R,1.700000X1.700000*%
%ADD13C,1.700000*%
%ADD14C,5.200000*%
%ADD15R,5.200000X5.200000*%
%ADD16C,2.099260*%
%ADD17R,2.099260X2.099260*%
%ADD18R,2.400000X2.400000*%
%ADD19C,2.400000*%
%ADD20C,2.398980*%
%ADD21R,2.224000X1.924000*%
%ADD22O,2.224000X1.924000*%
%ADD23R,1.924000X2.224000*%
%ADD24O,1.924000X2.224000*%
%ADD25R,2.000000X2.800000*%
%ADD26O,2.000000X2.800000*%
%ADD27C,1.822400*%
%ADD28R,2.000000X2.000000*%
%ADD29O,2.000000X2.000000*%
%ADD30O,2.099260X3.900120*%
G04 APERTURE END LIST*
D10*
D11*
X176420000Y-133620000D03*
X178960000Y-133620000D03*
X181500000Y-133620000D03*
X184040000Y-133620000D03*
X186580000Y-133620000D03*
X186580000Y-118380000D03*
X184040000Y-118380000D03*
X181500000Y-118380000D03*
X178960000Y-118380000D03*
X176420000Y-118380000D03*
D12*
X136500000Y-117500000D03*
D13*
X138500000Y-117500000D03*
D12*
X143500000Y-117500000D03*
D13*
X145500000Y-117500000D03*
D14*
X140400000Y-96000000D03*
D15*
X146500000Y-96000000D03*
D14*
X142690000Y-101080000D03*
D16*
X146160520Y-124497460D03*
D17*
X136000520Y-124497460D03*
D18*
X157460000Y-100500000D03*
D19*
X160000000Y-100500000D03*
D18*
X147500000Y-140000000D03*
D19*
X150040000Y-140000000D03*
D18*
X153460000Y-140000000D03*
D19*
X156000000Y-140000000D03*
D18*
X159460000Y-140000000D03*
D19*
X162000000Y-140000000D03*
D18*
X165500000Y-140000000D03*
D19*
X168040000Y-140000000D03*
D18*
X171460000Y-140000000D03*
D19*
X174000000Y-140000000D03*
D18*
X177500000Y-140000000D03*
D19*
X180040000Y-140000000D03*
D18*
X183500000Y-140000000D03*
D19*
X186040000Y-140000000D03*
D18*
X189500000Y-140000000D03*
D19*
X192040000Y-140000000D03*
D20*
X153000000Y-111000000D03*
X153000000Y-100840000D03*
D21*
X155000000Y-95500000D03*
D22*
X162620000Y-95500000D03*
D19*
X137500000Y-133500000D03*
X142000000Y-133500000D03*
X137500000Y-140000000D03*
X142000000Y-140000000D03*
D23*
X156500000Y-126000000D03*
D24*
X156500000Y-118380000D03*
X159040000Y-126000000D03*
X159040000Y-118380000D03*
X161580000Y-126000000D03*
X161580000Y-118380000D03*
X164120000Y-126000000D03*
X164120000Y-118380000D03*
X166660000Y-126000000D03*
X166660000Y-118380000D03*
D25*
X166300000Y-109620000D03*
D26*
X186620000Y-102000000D03*
X168840000Y-109620000D03*
X184080000Y-102000000D03*
X171380000Y-109620000D03*
X181540000Y-102000000D03*
X173920000Y-109620000D03*
X179000000Y-102000000D03*
X176460000Y-109620000D03*
X176460000Y-102000000D03*
X179000000Y-109620000D03*
X173920000Y-102000000D03*
X181540000Y-109620000D03*
X171380000Y-102000000D03*
X184080000Y-109620000D03*
X168840000Y-102000000D03*
X186620000Y-109620000D03*
X166300000Y-102000000D03*
D27*
X173500000Y-97000000D03*
X178580000Y-97000000D03*
D28*
X168580000Y-133000000D03*
D29*
X166040000Y-133000000D03*
X163500000Y-133000000D03*
X160960000Y-133000000D03*
X158420000Y-133000000D03*
X155880000Y-133000000D03*
D30*
X141000000Y-108000000D03*
X138460000Y-108000000D03*
X143540000Y-108000000D03*
M02*
